<svg width="800" height="800" viewBox="0 0 800 800" fill="none" xmlns="http://www.w3.org/2000/svg">
<g opacity="0.8">
<path opacity="0.3" d="M615.984 98.7676C695.552 128.672 757.632 211.568 774.256 314.784C788.272 401.76 766.608 508.432 636.496 557.088C503.696 606.752 131.6 628.464 61.504 487.072C-8.57602 345.696 4.86399 165.024 146.384 101.952C245.584 57.7436 460.608 40.3516 616 98.7516L615.984 98.7676Z" fill="#E6E6E6"/>
<path opacity="0.03" d="M400 738.496C614.896 738.496 789.104 714.491 789.104 684.88C789.104 655.268 614.896 631.264 400 631.264C185.104 631.264 10.896 655.268 10.896 684.88C10.896 714.491 185.104 738.496 400 738.496Z" fill="#000001"/>
<path d="M163.888 377.728C163.888 377.728 164.736 372.4 160.656 372.096C156.592 371.792 155.328 379.488 160.624 381.168L163.872 377.728H163.888Z" fill="#F4A28C"/>
<path d="M179.424 377.28L182.32 383.28C183.04 384.768 181.968 386.48 180.32 386.496L174.864 386.544L179.424 377.264V377.28Z" fill="#F4A28C"/>
<path d="M76.3201 479.904C76.3201 479.904 32.2241 501.056 26.4641 549.808C20.7201 598.56 4.41606 692.704 124.24 687.344C244.064 681.968 300.592 675.312 272.32 583.744C244.064 492.176 76.3041 479.92 76.3041 479.92L76.3201 479.904Z" fill="#FFD200"/>
<path opacity="0.09" d="M71.8721 505.232C71.8721 505.232 66.7361 527.152 87.8241 541.056C104.08 551.776 129.088 589.824 148.512 609.12C154.64 615.2 158.128 623.456 157.984 632.08C157.92 635.536 159.392 639.392 163.968 643.136C177.456 654.16 234.016 659.664 265.648 625.76C297.28 591.856 255.584 575.072 255.584 575.072L116.544 499.824L71.8721 505.232Z" fill="#000001"/>
<path d="M379.2 671.184C379.2 671.184 382.16 678.624 389.552 680.304C396.944 682 400.96 691.072 384.8 689.6C368.64 688.128 359.76 690.656 362.08 681.776C364.4 672.896 363.344 671.568 363.344 671.568L379.184 671.184H379.2Z" fill="#F4A28C"/>
<path d="M270.656 664.944C270.656 664.944 269.424 672.848 274.928 678.064C280.432 683.28 279.264 693.152 266.112 683.648C252.944 674.144 244.016 671.808 250.544 665.36C257.056 658.896 256.832 657.216 256.832 657.216L270.672 664.944H270.656Z" fill="#F4A28C"/>
<path d="M284.704 552.672C284.704 552.672 383.552 553.68 382.592 671.568L359.264 675.52C359.264 675.52 354.784 551.04 226.336 610.336L233.04 561.312L284.704 552.688V552.672Z" fill="#24285B"/>
<path opacity="0.09" d="M284.704 552.672C284.704 552.672 383.552 553.68 382.592 671.568L359.264 675.52C359.264 675.52 354.784 551.04 226.336 610.336L233.04 561.312L284.704 552.688V552.672Z" fill="#000001"/>
<path d="M292.544 444.08L301.104 446.384L295.008 439.808L292.544 444.08Z" fill="#FFD200"/>
<path d="M157.712 502.416C157.712 502.416 174.8 545.552 216.48 538C258.176 530.448 274.016 442.928 274.016 442.928C274.016 442.928 290.512 432.208 282.528 420.24C274.544 408.272 261.568 434.16 261.568 434.16C261.568 434.16 243.6 507.872 204.736 483.968L157.712 502.416Z" fill="#F4A28C"/>
<path opacity="0.09" d="M157.712 502.416C157.712 502.416 174.8 545.552 216.48 538C258.176 530.448 274.016 442.928 274.016 442.928C274.016 442.928 290.512 432.208 282.528 420.24C274.544 408.272 261.568 434.16 261.568 434.16C261.568 434.16 243.6 507.872 204.736 483.968L157.712 502.416Z" fill="#000001"/>
<path d="M158.224 414.72L167.248 416.592C167.248 416.592 236.88 454.4 223.936 492.272C210.992 530.144 239.28 566.08 239.28 566.08L178.72 608.736C178.72 608.736 99.6161 569.44 111.456 461.344C111.456 461.344 116.96 410.96 158.24 414.704L158.224 414.72Z" fill="#68E1FD"/>
<path d="M318.263 436.072L306.843 430.581L259.958 528.087L271.379 533.578L318.263 436.072Z" fill="#E6E6E6"/>
<path d="M154.928 367.232L142.384 411.424L167.248 416.592L166.384 382.352L154.928 367.232Z" fill="#F4A28C"/>
<path opacity="0.31" d="M166.896 389.84C166.896 389.84 162.352 388.336 159.328 384.016C159.328 384.016 158.688 392.4 166.88 401.728V389.84H166.896Z" fill="#CE8172"/>
<path d="M180.672 368.512C180.672 368.512 179.424 382.48 175.488 391.216C173.888 394.752 169.648 396.352 166.128 394.704C161.76 392.656 156.448 388.624 156.208 381.056L154.224 368.272C154.224 368.272 153.264 360.208 162.032 356C170.816 351.792 181.856 360.048 180.672 368.512Z" fill="#F4A28C"/>
<path d="M295.02 439.813L252.12 415.045L249.648 419.327L292.548 444.095L295.02 439.813Z" fill="#24285B"/>
<path opacity="0.18" d="M192.592 585.248L178.704 608.736C178.704 608.736 128.336 584.384 113.904 518.272C99.4721 452.16 147.088 477.984 147.088 477.984L192.592 585.248Z" fill="#000001"/>
<path d="M178.72 608.752C178.72 608.752 225.392 513.6 294.4 513.968C363.424 514.336 273.76 667.488 273.76 667.488L250.976 658.24C250.976 658.24 284.864 592.512 276.176 571.376C267.504 550.224 254.432 696.16 178.704 608.768L178.72 608.752Z" fill="#24285B"/>
<path d="M138.784 420.064C138.784 420.064 159.552 409.52 170.096 430.928C180.64 452.336 172.336 544.368 215.152 549.152C257.968 553.952 279.696 509.376 279.696 509.376C279.696 509.376 283.216 490.544 289.136 487.472C295.056 484.4 300.16 504.096 289.136 515.584C289.136 515.584 270.256 586.528 210.368 588.128C150.48 589.728 79.6801 468.624 138.784 420.048V420.064Z" fill="#F4A28C"/>
<path d="M180.752 350.4C180.752 350.4 194.4 366.448 176.736 369.808C159.072 373.168 155.44 376.336 157.136 394.256C158.832 412.176 165.824 428.592 142.4 439.808C118.976 451.024 139.104 469.744 134.8 491.792C130.496 513.84 109.872 528.928 83.52 513.952C57.152 498.976 40.864 460.624 69.136 437.632C97.408 414.624 132.88 409.12 132.88 372.08C132.88 335.04 162.496 333.136 180.768 350.384L180.752 350.4Z" fill="#24285B"/>
<path d="M293.636 514.429L276.144 507.76L272.382 517.627L289.874 524.296L293.636 514.429Z" fill="#68E1FD"/>
<path opacity="0.44" d="M293.636 514.429L276.144 507.76L272.382 517.627L289.874 524.296L293.636 514.429Z" fill="white"/>
<path d="M695.552 473.265C695.552 473.265 783.856 488.209 779.76 549.793C776.512 598.785 801.808 692.689 681.984 687.329C562.16 681.953 505.632 675.297 533.904 583.729C562.16 492.161 695.568 473.265 695.568 473.265H695.552Z" fill="#FFD200"/>
<path opacity="0.09" d="M734.352 505.232C734.352 505.232 739.488 527.152 718.4 541.056C702.144 551.776 677.136 589.824 657.712 609.12C651.584 615.2 648.096 623.456 648.24 632.08C648.304 635.536 646.832 639.392 642.256 643.136C628.768 654.16 572.208 659.664 540.576 625.76C508.944 591.856 550.64 575.072 550.64 575.072L687.68 480.16C683.008 477.648 728.72 486.688 734.352 505.216V505.232Z" fill="#000001"/>
<path d="M427.024 671.185C427.024 671.185 424.064 678.625 416.672 680.305C409.28 681.985 405.264 691.073 421.424 689.601C437.584 688.129 446.464 690.657 444.144 681.777C441.824 672.897 442.88 671.569 442.88 671.569L427.04 671.185H427.024Z" fill="#F4A28C"/>
<path d="M504.416 675.52C504.416 675.52 502.864 683.376 495.888 686.384C488.928 689.392 486.624 699.056 502.256 694.656C517.888 690.256 527.072 691.136 523.168 682.832C519.264 674.528 520.064 673.024 520.064 673.024L504.416 675.52Z" fill="#F4A28C"/>
<path d="M521.52 552.673C521.52 552.673 422.672 553.681 423.632 671.569L446.96 675.521C446.96 675.521 451.44 551.041 579.888 610.337L573.184 561.313L521.52 552.689V552.673Z" fill="#24285B"/>
<path opacity="0.09" d="M521.52 552.673C521.52 552.673 422.672 553.681 423.632 671.569L446.96 675.521C446.96 675.521 451.44 551.041 579.888 610.337L573.184 561.313L521.52 552.689V552.673Z" fill="#000001"/>
<path d="M525.088 444.993C525.088 444.993 489.84 463.089 477.776 454.801C465.712 446.513 462.24 400.513 462.24 400.513L445.584 404.161C445.584 404.161 439.232 495.137 467.216 504.561C495.2 513.985 544.128 489.857 544.128 489.857L525.088 444.993Z" fill="#F4A28C"/>
<path d="M621.376 444.929C609.76 468.001 584.32 498.945 530.32 504.657L518.768 446.657C518.768 446.657 559.84 420.705 603.296 417.521C617.856 416.449 627.952 431.905 621.392 444.945L621.376 444.929Z" fill="#68E1FD"/>
<path opacity="0.46" d="M621.376 444.929C609.76 468.001 584.32 498.945 530.32 504.657L518.768 446.657C518.768 446.657 559.84 420.705 603.296 417.521C617.856 416.449 627.952 431.905 621.392 444.945L621.376 444.929Z" fill="white"/>
<path d="M461.44 400.688C462.256 400.512 463.088 382.912 460.96 384.544C458.816 386.176 458.064 389.44 458.064 389.44C458.064 389.44 458.064 376.992 451.648 378.384C445.232 379.776 443.072 394.096 445.6 404.144L461.328 401.248" fill="#F4A28C"/>
<path d="M609.552 352.288C609.552 352.288 607.264 368.464 609.424 379.424C610.304 383.872 614.688 386.8 619.12 385.872C624.624 384.704 631.728 381.536 634 373.008L639.632 359.008C639.632 359.008 642.864 350.112 634.016 343.008C625.168 335.904 610.448 342.352 609.552 352.288Z" fill="#F4A28C"/>
<path d="M638.624 361.553L644.208 414.817L614.64 415.793L622.448 376.641L638.624 361.553Z" fill="#F4A28C"/>
<path d="M613.568 353.184C616.416 353.488 621.648 353.744 628.672 352.832C628.672 352.832 623.2 359.664 627.872 367.76C632.56 375.856 641.024 372.896 641.024 372.896L641.872 351.92C642.32 345.808 639.408 339.936 634.24 336.656C632.128 335.312 629.792 333.968 627.424 332.864C621.52 330.128 612.464 333.68 607.264 329.312C604.992 327.392 601.472 328.64 600.88 331.552C599.6 337.872 600.192 347.968 608.64 351.92C610.192 352.64 611.856 353.008 613.552 353.184H613.568Z" fill="#FFD200"/>
<path d="M626.16 367.184C626.16 367.184 626.624 360.912 631.312 361.648C636 362.384 635.408 371.456 628.944 371.968L626.16 367.2V367.184Z" fill="#F4A28C"/>
<path d="M608.64 362.561L603.76 368.609C602.56 370.097 603.312 372.337 605.168 372.801L611.344 374.305L608.64 362.561Z" fill="#F4A28C"/>
<path opacity="0.31" d="M619.68 388.304C619.68 388.304 623.648 387.712 626.784 384.576C626.784 384.576 626.112 391.6 618 398.144L619.696 388.304H619.68Z" fill="#CE8172"/>
<path d="M682.976 447.504C674.384 423.712 650.864 408.64 625.584 409.472L616.128 409.792C616.128 409.792 549.776 409.52 544.736 469.92C539.712 530.32 567.04 578.224 567.04 578.224L656.192 581.472C656.192 581.472 702.208 500.816 682.96 447.504H682.976Z" fill="#68E1FD"/>
<path opacity="0.08" d="M638.048 440.864C638.048 440.864 625.328 485.712 629.984 529.168C634.64 572.624 622.288 580.24 622.288 580.24L656.208 581.472C656.208 581.472 666.304 564.016 669.04 554.832C671.776 545.648 686.496 442.64 638.048 440.864Z" fill="#000001"/>
<path d="M668.704 424.641C689.232 440.337 714.912 471.073 710.512 525.201L651.376 525.809C651.376 525.809 633.488 480.641 638.416 437.345C640.064 422.833 657.12 415.793 668.72 424.657L668.704 424.641Z" fill="#68E1FD"/>
<path opacity="0.46" d="M668.704 424.641C689.232 440.337 714.912 471.073 710.512 525.201L651.376 525.809C651.376 525.809 633.488 480.641 638.416 437.345C640.064 422.833 657.12 415.793 668.72 424.657L668.704 424.641Z" fill="white"/>
<path d="M704.912 525.265C704.912 525.265 706.432 605.329 683.36 651.393L670.752 649.489C670.752 649.489 681.184 572.849 660.32 525.713L704.928 525.265H704.912Z" fill="#F4A28C"/>
<path d="M683.344 651.392C683.344 651.392 677.872 677.712 663.776 668.128C649.68 658.544 670.72 649.488 670.72 649.488L683.328 651.392H683.344Z" fill="#F4A28C"/>
<path d="M655.296 583.728C655.296 583.728 580.848 513.6 511.824 513.968C442.8 514.336 495.968 685.12 495.968 685.12L518.752 675.872C518.752 675.872 521.36 592.512 530.048 571.376C538.72 550.224 572.928 689.792 655.296 583.744V583.728Z" fill="#24285B"/>
<path d="M618 223.648H516.592V242.448H490.224V178.144H328.944V275.424H490.224V247.216H516.592V284.816H595.376L610.512 307.952V284.816H618V223.648Z" fill="#E6E6E6"/>
<path opacity="0.09" d="M547.088 261.551C550.49 261.551 553.248 258.794 553.248 255.391C553.248 251.989 550.49 249.231 547.088 249.231C543.686 249.231 540.928 251.989 540.928 255.391C540.928 258.794 543.686 261.551 547.088 261.551Z" fill="#000001"/>
<path opacity="0.09" d="M567.296 261.551C570.698 261.551 573.456 258.794 573.456 255.391C573.456 251.989 570.698 249.231 567.296 249.231C563.894 249.231 561.136 251.989 561.136 255.391C561.136 258.794 563.894 261.551 567.296 261.551Z" fill="#000001"/>
<path opacity="0.09" d="M587.504 261.551C590.906 261.551 593.664 258.794 593.664 255.391C593.664 251.989 590.906 249.231 587.504 249.231C584.102 249.231 581.344 251.989 581.344 255.391C581.344 258.794 584.102 261.551 587.504 261.551Z" fill="#000001"/>
<path opacity="0.09" d="M379.088 230.639C383.603 230.639 387.264 226.979 387.264 222.463C387.264 217.948 383.603 214.287 379.088 214.287C374.572 214.287 370.912 217.948 370.912 222.463C370.912 226.979 374.572 230.639 379.088 230.639Z" fill="#000001"/>
<path opacity="0.09" d="M405.904 230.639C410.42 230.639 414.08 226.979 414.08 222.463C414.08 217.948 410.42 214.287 405.904 214.287C401.389 214.287 397.728 217.948 397.728 222.463C397.728 226.979 401.389 230.639 405.904 230.639Z" fill="#000001"/>
<path opacity="0.09" d="M432.704 230.639C437.219 230.639 440.88 226.979 440.88 222.463C440.88 217.948 437.219 214.287 432.704 214.287C428.188 214.287 424.528 217.948 424.528 222.463C424.528 226.979 428.188 230.639 432.704 230.639Z" fill="#000001"/>
<path d="M225.648 269.264H111.184V307.088H225.648V269.264Z" fill="#E6E6E6"/>
<path d="M275.824 216.016H161.36V253.84H275.824V216.016Z" fill="#E6E6E6"/>
</g>
</svg>
