<svg width="800" height="800" viewBox="0 0 800 800" fill="none" xmlns="http://www.w3.org/2000/svg">
<path d="M388.923 674.971L32.9226 464.571C21.5626 458.171 11.8026 447.771 22.8426 440.891L380.123 234.971C385.563 231.611 393.563 229.531 399.003 232.571L772.602 449.371C783.962 455.931 786.042 474.331 774.682 480.891L435.803 674.651C421.243 682.971 403.483 683.131 388.923 674.971Z" fill="#16A79E"/>
<path d="M678.203 442.33C677.083 442.33 676.123 442.17 675.003 441.69L674.523 444.89L725.082 446.17V442.33H678.203Z" fill="#5C2D1D"/>
<path d="M675.003 441.69L674.523 444.73L702.363 460.89V457.05C693.083 452.41 683.963 447.13 675.003 441.69Z" fill="#5C2D1D"/>
<path d="M703.163 223.931C701.563 224.251 699.803 223.931 698.363 223.291L666.363 470.331C668.283 471.451 670.363 472.571 672.283 473.691L704.603 223.931H703.163Z" fill="#5C2D1D"/>
<path d="M710.523 223.61C709.403 223.77 708.123 223.77 707.003 223.61C706.043 223.61 705.083 223.61 704.123 223.77L725.723 477.05C727.323 476.25 729.083 475.61 730.843 474.97C731.163 474.81 731.483 474.65 731.643 474.49H731.803L710.523 223.61Z" fill="#5C2D1D"/>
<path d="M707.003 223.61C705.723 223.61 704.443 223.77 703.163 223.93C702.683 223.93 702.203 224.09 701.563 224.09L699.482 491.77C700.602 491.45 701.723 491.29 702.843 491.45H704.603L705.723 491.29L707.803 223.61H707.003Z" fill="#5C2D1D"/>
<path d="M672.123 227.931V283.291C672.123 283.291 735.803 285.211 735.803 283.291V227.931" fill="#68E1FD"/>
<path d="M703.963 242.491C721.547 242.491 735.803 235.9 735.803 227.771C735.803 219.641 721.547 213.051 703.963 213.051C686.378 213.051 672.123 219.641 672.123 227.771C672.123 235.9 686.378 242.491 703.963 242.491Z" fill="#68E1FD"/>
<path opacity="0.19" d="M703.963 242.491C721.547 242.491 735.803 235.9 735.803 227.771C735.803 219.641 721.547 213.051 703.963 213.051C686.378 213.051 672.123 219.641 672.123 227.771C672.123 235.9 686.378 242.491 703.963 242.491Z" fill="black"/>
<path d="M703.963 298.811C721.547 298.811 735.803 292.221 735.803 284.091C735.803 275.961 721.547 269.371 703.963 269.371C686.378 269.371 672.123 275.961 672.123 284.091C672.123 292.221 686.378 298.811 703.963 298.811Z" fill="#68E1FD"/>
<path d="M91.0026 415.451V448.251H144.123V415.451" fill="#68E1FD"/>
<path d="M117.563 428.571C132.231 428.571 144.123 422.697 144.123 415.451C144.123 408.205 132.231 402.331 117.563 402.331C102.894 402.331 91.0026 408.205 91.0026 415.451C91.0026 422.697 102.894 428.571 117.563 428.571Z" fill="#68E1FD"/>
<path opacity="0.19" d="M117.563 428.571C132.231 428.571 144.123 422.697 144.123 415.451C144.123 408.205 132.231 402.331 117.563 402.331C102.894 402.331 91.0026 408.205 91.0026 415.451C91.0026 422.697 102.894 428.571 117.563 428.571Z" fill="black"/>
<path d="M117.563 462.651C132.231 462.651 144.123 456.777 144.123 449.531C144.123 442.285 132.231 436.411 117.563 436.411C102.894 436.411 91.0026 442.285 91.0026 449.531C91.0026 456.777 102.894 462.651 117.563 462.651Z" fill="#68E1FD"/>
<path d="M147.323 339.131C141.723 336.891 133.883 329.211 127.163 329.371C124.603 335.771 123.803 343.131 123.003 349.531C121.723 360.731 121.403 371.931 122.203 383.131C122.363 385.691 122.523 388.091 122.843 390.651C122.843 391.451 123.163 392.091 123.483 392.731V418.811C123.643 419.291 124.123 419.451 124.443 419.451C124.763 419.451 124.923 419.131 125.083 418.811C125.083 410.491 125.083 402.171 125.083 393.851C127.803 393.051 130.363 391.771 132.763 390.331C137.723 387.131 141.563 382.491 143.483 376.891C147.803 364.891 145.083 351.611 149.083 339.771C148.443 339.611 147.963 339.291 147.323 339.131Z" fill="#006837"/>
<path d="M135.803 319.611C132.603 321.531 130.043 324.091 128.283 327.451C127.803 328.251 127.323 328.891 127.003 329.691C126.843 329.851 126.843 330.011 126.843 330.171C126.363 331.451 125.883 332.891 125.563 334.331C126.203 333.211 127.163 332.411 128.443 332.091C129.883 331.451 131.323 331.291 132.923 331.771C134.363 332.251 135.803 333.051 136.923 334.011C138.843 335.131 140.603 336.411 142.523 337.691C151.323 343.291 163.003 343.931 169.883 335.771C170.043 335.451 170.043 335.131 170.043 334.811C171.003 328.891 155.323 308.251 135.803 319.611Z" fill="#8CC63F"/>
<path d="M165.883 338.811L167.003 338.171C167.003 338.011 167.003 337.691 166.843 337.531C161.563 332.091 155.803 326.651 148.603 324.091C143.323 322.171 137.723 321.531 132.283 322.491C131.643 323.131 131.163 323.931 130.683 324.571C136.603 322.651 144.123 323.771 149.563 326.171C155.963 328.891 161.083 333.851 165.883 338.811C165.723 338.811 165.723 338.811 165.883 338.811Z" fill="#006837"/>
<path d="M76.7625 350.811C68.9225 354.971 64.2825 363.291 64.9225 372.091C65.5625 387.771 91.3225 372.411 98.2025 359.291C105.083 346.171 106.203 364.891 106.203 364.891" fill="#006837"/>
<path d="M99.9625 345.371C95.1625 345.211 90.2025 346.011 85.5625 347.291C82.5225 348.091 79.4825 349.211 76.6025 350.811C78.2025 351.931 79.9625 352.891 81.7225 353.531C84.9225 354.811 88.4425 356.411 90.0425 359.451C90.5225 360.251 90.8425 361.051 91.0025 361.851C92.6025 366.971 91.1625 373.211 93.4025 378.491C95.6425 383.771 99.8025 388.251 105.883 388.571C113.243 389.051 116.443 382.011 117.883 375.931C119.323 369.851 121.243 361.691 119.003 355.451C116.603 348.251 106.843 345.691 99.9625 345.371Z" fill="#8CC63F"/>
<path d="M109.563 369.851C106.523 359.931 99.9625 350.651 90.5225 346.171H90.2025L89.7225 346.331L87.9625 346.811C99.0025 350.971 105.883 361.851 108.763 372.891C112.443 387.131 111.163 402.491 111.163 417.051C111.163 417.531 111.483 417.851 111.963 417.851C112.443 417.851 112.763 417.531 112.763 417.051C112.763 401.531 114.203 384.891 109.563 369.851Z" fill="#006837"/>
<path d="M530.043 394.491V469.691H535.643L536.763 392.571" fill="#5C2D1D"/>
<path d="M561.563 365.531L572.763 447.291H567.163L555.643 368.571" fill="#5C2D1D"/>
<path d="M449.242 422.65C449.242 422.65 444.122 439.61 442.842 441.37C441.562 443.13 424.603 454.33 424.923 457.85C425.243 461.37 431.642 462.81 435.642 462.49C439.642 462.17 462.683 452.57 464.123 449.69C465.563 446.81 465.562 422.65 465.562 422.65H449.242Z" fill="black"/>
<path d="M476.603 442.65C476.603 442.65 471.483 459.61 470.203 461.37C468.923 463.13 451.962 474.33 452.282 477.85C452.602 481.37 459.003 482.81 463.003 482.49C467.003 482.17 490.042 472.57 491.482 469.69C492.922 466.81 492.923 442.65 492.923 442.65H476.603Z" fill="black"/>
<path d="M564.603 287.931C563.163 292.091 554.843 354.811 554.843 354.811L546.523 351.931L557.403 287.611" fill="#5C2D1D"/>
<path d="M561.563 365.531L561.882 355.451L552.923 358.491L555.643 368.571" fill="#A6B1F7"/>
<path d="M541.403 350.011C541.403 350.011 563.803 358.651 561.563 367.131C559.323 375.611 541.402 396.411 530.042 394.651C518.682 392.891 504.603 382.811 504.603 382.811" fill="#A6B1F7"/>
<path d="M541.403 339.611C541.403 339.611 563.803 348.251 561.563 356.731C559.323 365.211 541.402 386.011 529.882 384.251C518.362 382.491 504.603 372.411 504.603 372.411" fill="#A6B1F7"/>
<path d="M550.363 260.891C550.363 260.891 571.963 266.331 574.203 278.811C576.443 291.291 577.083 314.331 546.203 305.371C515.323 296.411 529.882 273.371 529.882 273.371" fill="#A6B1F7"/>
<path d="M497.882 310.651C497.882 310.651 453.563 341.051 447.803 356.571C442.043 372.091 438.363 433.211 438.363 433.211C438.363 433.211 453.883 442.811 471.963 437.211L485.563 367.931C485.563 367.931 517.882 354.171 523.482 336.891C529.082 319.611 521.563 287.611 521.563 287.611" fill="#5C2D1D"/>
<path d="M522.682 328.411C522.682 328.411 478.203 358.811 472.603 374.331C467.003 389.851 463.163 450.971 463.163 450.971C463.163 450.971 478.683 460.571 496.763 454.971L510.363 385.691C510.363 385.691 542.682 371.931 548.282 354.651C553.882 337.371 546.203 305.211 546.203 305.211" fill="#5C2D1D"/>
<path d="M540.282 329.051C547.802 310.651 554.682 257.211 550.042 251.291C544.762 244.411 514.203 233.211 514.203 233.211C506.843 231.291 499.163 233.051 493.403 238.011C486.043 244.251 491.163 293.051 493.403 317.691C506.363 329.531 521.722 332.411 540.282 329.051Z" fill="#8CC63F"/>
<path d="M543.323 211.931C541.723 205.211 536.443 202.811 530.363 202.651C529.243 201.371 527.963 200.411 526.363 199.611C521.723 197.371 515.322 197.691 511.482 201.211C509.882 200.731 508.282 200.571 506.682 200.891C501.882 201.851 500.283 206.331 500.443 210.651C500.443 210.811 500.443 210.971 500.443 211.131C499.323 218.491 505.723 222.971 505.723 222.971L526.043 239.291C528.763 238.491 531.323 236.891 533.243 234.811C533.883 234.011 534.523 233.051 534.843 232.091C535.003 231.931 535.163 231.931 535.323 231.771C541.083 227.131 544.923 219.451 543.323 211.931Z" fill="#5C2D1D"/>
<path d="M506.363 217.211C506.363 219.771 505.563 243.771 516.443 244.091C527.323 244.411 531.163 229.211 531.163 229.211C531.163 229.211 522.363 224.571 522.363 220.891C522.363 217.211 523.163 215.771 518.683 213.851C514.203 211.931 506.363 212.891 506.363 217.211Z" fill="#FFE0CE"/>
<path d="M500.283 233.851C500.283 233.851 466.203 248.091 460.923 272.891C453.563 307.291 497.883 271.291 497.883 271.291" fill="#8CC63F"/>
<path opacity="0.19" d="M509.883 252.411C509.883 252.411 511.323 266.971 506.683 268.411C502.043 269.851 496.603 274.491 496.603 274.491L492.443 307.611L490.043 276.091L492.923 262.011L509.883 252.411Z" fill="black"/>
<path d="M476.603 259.131C476.603 259.131 492.443 242.651 494.363 243.931C498.683 246.811 491.482 252.091 491.482 252.091C491.482 252.091 509.243 245.691 509.723 252.411C510.203 259.131 486.842 263.131 486.842 263.131L480.603 267.611" fill="#FFE0CE"/>
<path d="M478.843 251.131C476.123 250.491 435.803 281.531 452.603 293.211C469.083 304.731 496.763 268.411 496.763 268.411C496.763 268.411 490.523 253.851 478.843 251.131Z" fill="#8CC63F"/>
<path d="M508.603 334.651C500.603 342.651 492.123 350.331 484.603 358.811C478.203 366.171 475.642 375.611 473.082 384.891C467.322 406.491 464.602 428.891 462.042 450.971C461.882 452.251 463.963 452.251 464.123 450.971C466.683 429.531 469.083 408.091 474.523 387.291C477.243 377.051 479.803 366.971 487.163 358.971C494.523 350.971 502.362 343.771 509.882 336.091C510.202 335.611 510.203 334.971 509.723 334.651C509.403 334.331 508.923 334.331 508.603 334.651Z" fill="black"/>
<path d="M491.643 332.091C491.643 332.091 470.043 337.211 470.843 339.131C471.643 341.051 478.683 339.131 478.683 339.131C478.683 339.131 464.283 345.211 467.163 351.131C469.083 354.971 482.843 352.411 486.523 351.131C490.203 349.851 500.443 339.931 500.443 339.931L491.643 332.091Z" fill="#FFE0CE"/>
<path d="M530.043 273.37C530.043 273.37 525.402 306.81 521.882 311.45C518.362 316.09 481.882 332.09 481.882 332.09C481.882 332.09 493.723 337.37 493.563 350.01C493.563 350.01 539.483 338.49 543.963 327.93C548.443 317.37 561.883 264.25 550.203 251.45C538.523 238.65 530.043 273.37 530.043 273.37Z" fill="#8CC63F"/>
<path opacity="0.19" d="M525.723 284.571C525.083 290.331 523.963 296.091 522.523 301.691C521.083 307.131 520.122 313.531 514.842 316.251C504.922 321.371 494.042 325.211 483.642 329.691C482.522 330.171 483.482 331.931 484.602 331.291L503.962 322.971C508.602 321.051 515.642 319.451 519.162 315.611C522.202 312.251 523.162 306.331 524.282 302.171C525.722 296.411 526.842 290.491 527.642 284.411C527.802 283.291 525.883 283.291 525.723 284.571Z" fill="black"/>
<path d="M466.523 182.491L356.923 119.611C354.683 118.331 351.963 119.131 350.683 121.371C350.203 122.011 350.043 122.811 350.043 123.611V164.091C350.043 168.091 352.283 171.771 355.643 173.691L461.883 233.211C464.123 234.491 466.843 233.691 468.123 231.451C468.443 230.811 468.763 230.011 468.763 229.211V186.491C468.923 184.891 467.963 183.451 466.523 182.491Z" fill="#68E1FD"/>
<path d="M458.682 224.731V248.571L438.842 218.971" fill="#68E1FD"/>
<path d="M363.003 143.771L413.882 172.251L421.082 176.251C424.442 178.171 427.483 173.051 424.123 171.131L373.083 142.651L365.883 138.651C362.523 136.731 359.483 141.851 363.003 143.771Z" fill="white"/>
<path d="M360.442 159.931L390.203 176.411L437.563 202.811L448.443 208.891C451.803 210.811 454.842 205.691 451.482 203.771L421.882 187.131L374.523 160.731L363.642 154.651C360.122 152.891 357.082 158.011 360.442 159.931Z" fill="white"/>
<path d="M267.803 367.771C267.963 407.931 268.123 444.251 268.123 444.251C268.123 444.251 268.923 447.451 275.003 444.891V365.531C272.763 366.171 270.203 366.971 267.803 367.771Z" fill="#5C2D1D"/>
<path d="M435.963 465.531C436.123 505.691 436.282 542.011 436.282 542.011C436.282 542.011 437.083 545.211 443.163 542.651V463.291C440.923 464.091 438.363 464.891 435.963 465.531Z" fill="#5C2D1D"/>
<path d="M539.643 404.731C539.803 444.891 539.963 481.211 539.963 481.211C539.963 481.211 540.763 484.411 546.843 481.851V402.491C544.443 403.131 542.043 403.931 539.643 404.731Z" fill="#5C2D1D"/>
<path d="M266.363 365.371V372.251L439.963 472.731L546.682 402.651L546.843 394.971" fill="#68E1FD"/>
<path opacity="0.36" d="M266.363 365.371V372.251L439.963 472.731L546.682 402.651L546.843 394.971" fill="black"/>
<path d="M266.363 365.371L378.043 301.691L546.843 394.971L439.323 465.851L266.363 365.371Z" fill="#68E1FD"/>
<path d="M424.442 359.771L424.603 361.851L423.482 363.131" fill="black"/>
<path d="M382.683 334.651L423.482 359.611C424.602 360.411 425.082 361.851 424.282 363.131C424.122 363.451 423.803 363.771 423.323 363.931L361.883 398.971C360.123 399.931 358.043 399.931 356.283 398.971L315.803 375.291C312.923 372.891 313.083 368.411 315.803 368.091L376.923 334.331C378.523 333.531 380.763 333.531 382.683 334.651Z" fill="black"/>
<path d="M382.682 332.891L423.323 358.011C424.443 358.651 424.922 360.251 424.282 361.371C424.122 361.691 423.803 362.011 423.323 362.331L361.722 397.371C359.962 398.331 357.882 398.331 356.122 397.371L315.642 373.691C314.202 372.731 313.722 370.811 314.682 369.211C315.002 368.731 315.322 368.411 315.642 368.251L376.762 332.731C378.522 331.771 380.762 331.771 382.682 332.891Z" fill="white"/>
<path d="M380.923 329.531C380.923 329.531 363.803 275.131 363.963 275.131C364.123 275.131 363.483 272.731 360.443 274.171L295.803 312.571C295.803 312.571 292.603 313.851 293.243 316.731C293.883 319.611 309.883 369.851 309.883 369.851C310.523 370.811 311.803 371.291 312.923 370.811C314.843 370.171 379.323 332.411 379.323 332.411C380.603 332.091 381.243 330.811 380.923 329.531Z" fill="black"/>
<path d="M362.842 279.131L296.763 318.011L310.683 364.091L377.722 326.331L362.842 279.131Z" fill="#68E1FD"/>
<path d="M385.083 338.651L399.963 347.931C400.763 348.411 401.083 349.531 400.603 350.331C400.443 350.651 400.283 350.811 399.963 350.971L346.843 381.531C345.243 382.491 343.163 382.491 341.563 381.531C338.203 379.611 332.123 375.931 328.603 373.851C327.643 373.211 327.163 371.931 327.803 370.811C327.963 370.491 328.283 370.171 328.603 370.011L382.043 338.651C383.003 338.171 384.123 338.171 385.083 338.651Z" fill="black"/>
<path d="M384.443 363.771L365.883 374.331C364.923 374.811 364.763 376.091 365.243 376.891C365.403 377.211 365.563 377.371 365.883 377.531L376.923 383.931C377.723 384.411 378.683 384.411 379.483 383.931L398.523 373.051C399.323 372.571 399.483 371.611 399.003 370.811C398.843 370.651 398.683 370.491 398.523 370.331L387.163 363.771C386.043 363.291 385.243 363.291 384.443 363.771Z" fill="black"/>
<path d="M385.083 338.651L399.963 347.931C400.763 348.411 401.083 349.531 400.603 350.331C400.443 350.651 400.283 350.811 399.963 350.971L346.843 381.531C345.243 382.491 343.163 382.491 341.563 381.531C338.203 379.611 332.123 375.931 328.603 373.851C327.643 373.211 327.163 371.931 327.803 370.811C327.963 370.491 328.283 370.171 328.603 370.011L382.043 338.651C383.003 338.171 384.123 338.171 385.083 338.651Z" fill="#68E1FD"/>
<path d="M384.443 363.771L365.883 374.331C364.923 374.811 364.763 376.091 365.243 376.891C365.403 377.211 365.563 377.371 365.883 377.531L376.923 383.931C377.723 384.411 378.683 384.411 379.483 383.931L398.523 373.051C399.323 372.571 399.483 371.611 399.003 370.811C398.843 370.651 398.683 370.491 398.523 370.331L387.163 363.771C386.043 363.291 385.243 363.291 384.443 363.771Z" fill="#68E1FD"/>
<path d="M336.442 517.371C336.282 518.491 335.483 532.411 337.083 534.171C338.683 535.931 342.683 543.611 347.803 543.931C352.923 544.251 357.562 543.291 358.522 548.731C359.482 554.171 329.883 555.931 329.883 555.931C329.883 555.931 326.843 543.611 325.403 543.931C323.963 544.251 324.122 557.531 324.122 557.531L318.683 558.651L313.242 554.971L315.483 531.291L319.003 511.131" fill="#5C2D1D"/>
<path d="M358.523 537.211C357.883 545.531 358.203 556.891 366.203 562.011C370.523 564.731 379.643 562.171 380.763 568.411C381.723 573.851 352.123 575.771 352.123 575.771C352.123 575.771 348.922 563.451 347.642 563.771C346.362 564.091 346.363 577.371 346.363 577.371L340.923 578.651L335.483 574.971L337.563 551.291L341.083 531.131" fill="#5C2D1D"/>
<path d="M345.563 384.571L349.403 379.451C350.363 378.011 350.043 376.251 348.763 375.131C348.123 374.651 347.323 374.491 346.683 374.651C347.483 373.211 348.123 371.771 348.443 370.171C348.603 368.571 347.483 367.131 345.883 366.811C344.923 366.651 343.963 366.971 343.323 367.771L336.763 376.411L340.123 370.651C342.043 367.451 336.763 364.891 334.843 368.091L329.243 377.851C329.243 376.891 329.243 375.931 329.083 374.971C328.923 372.411 328.603 369.211 325.403 369.051C323.803 368.891 322.363 369.851 322.043 371.451C321.563 373.531 321.563 375.771 322.203 378.011C322.683 380.251 324.123 383.451 322.843 385.691L316.283 395.931C315.323 397.211 315.483 398.971 316.763 400.091C317.243 400.411 317.723 400.571 318.203 400.731C318.363 402.331 319.963 403.611 321.563 403.291C321.723 403.291 322.043 403.291 322.203 403.131C322.843 403.451 323.483 403.611 324.123 403.611C324.923 404.731 326.363 405.051 327.483 404.411C328.123 405.851 329.723 406.651 331.163 406.011C331.483 405.851 331.963 405.531 332.283 405.211C336.923 399.611 343.163 395.451 347.323 389.371C348.283 387.931 347.803 385.851 346.363 384.891C346.203 384.891 345.883 384.731 345.563 384.571Z" fill="#FFE0CE"/>
<path d="M282.522 423.291C284.602 429.851 290.523 434.331 297.563 434.811C309.403 435.451 331.802 410.491 331.802 410.491C331.802 410.491 332.443 388.251 322.683 384.411C322.683 384.411 306.522 398.491 304.122 398.651C301.722 398.811 288.763 386.491 288.763 386.491" fill="#CCCCCC"/>
<path opacity="0.19" d="M282.522 423.291C284.602 429.851 290.523 434.331 297.563 434.811C309.403 435.451 331.802 410.491 331.802 410.491C331.802 410.491 332.443 388.251 322.683 384.411C322.683 384.411 306.522 398.491 304.122 398.651C301.722 398.811 288.763 386.491 288.763 386.491" fill="black"/>
<path d="M350.843 386.651C351.803 384.731 352.763 382.811 353.723 380.891C354.523 379.451 353.883 377.531 352.283 376.891C351.643 376.571 350.843 376.571 350.043 376.731C350.523 375.131 351.003 373.531 351.003 371.931C351.003 370.331 349.563 369.051 347.963 369.051C347.003 369.051 346.043 369.531 345.563 370.491C343.963 373.691 342.363 376.891 340.603 380.091L342.843 373.851C344.123 370.331 338.523 368.891 337.243 372.251L333.403 382.811C333.243 381.851 333.083 381.051 332.763 380.091C332.283 377.531 331.323 374.491 328.123 374.971C326.523 374.971 325.243 376.251 325.243 377.851C325.083 380.091 325.563 382.331 326.523 384.251C327.483 386.491 329.403 389.371 328.443 391.771C326.843 395.451 325.243 399.291 323.643 402.971C322.843 404.411 323.483 406.171 324.763 406.811C325.243 407.131 325.723 407.131 326.203 407.131C326.683 408.731 328.283 409.691 329.883 409.211C330.043 409.211 330.363 409.051 330.523 408.891C331.163 409.211 331.963 409.211 332.603 408.891C333.563 409.851 335.003 409.851 335.963 409.051C336.763 410.491 338.523 410.811 339.963 410.011C340.443 409.691 340.763 409.371 340.923 409.051C344.603 402.651 349.883 397.531 353.083 390.811C353.723 389.211 352.763 387.291 351.163 386.811C351.323 386.811 351.003 386.651 350.843 386.651Z" fill="#FFE0CE"/>
<path d="M310.042 506.651L305.723 530.491C305.723 530.491 312.603 537.531 335.483 536.731C358.363 535.931 335.483 494.651 335.483 494.651" fill="#CCCCCC"/>
<path opacity="0.19" d="M310.042 506.651L305.723 530.491C305.723 530.491 312.603 537.531 335.483 536.731C358.363 535.931 335.483 494.651 335.483 494.651" fill="black"/>
<path d="M312.923 562.011C312.923 568.731 298.203 574.171 280.123 574.171C262.043 574.171 247.323 568.731 247.323 562.011C247.323 555.291 262.043 549.851 280.123 549.851C298.203 549.851 312.923 555.291 312.923 562.011Z" fill="#5C2D1D"/>
<path d="M274.682 507.611L275.963 556.571H285.722V507.611" fill="#5C2D1D"/>
<path d="M296.603 449.051C296.603 449.051 322.203 428.411 339.323 426.011C356.443 423.611 365.243 442.011 363.963 454.491C362.683 466.971 321.883 473.691 321.883 473.691" fill="#CCCCCC"/>
<path opacity="0.19" d="M296.603 449.051C296.603 449.051 322.203 428.411 339.323 426.011C356.443 423.611 365.243 442.011 363.963 454.491C362.683 466.971 321.883 473.691 321.883 473.691" fill="black"/>
<path d="M310.363 455.931C313.723 452.891 357.242 432.571 372.602 441.851C387.962 451.131 387.003 458.011 385.083 469.371C383.163 480.731 368.283 541.691 368.283 541.691C368.283 541.691 353.562 548.571 333.402 543.291L337.722 498.011L279.642 466.331" fill="#CCCCCC"/>
<path opacity="0.7" d="M310.363 455.931C313.723 452.891 357.242 432.571 372.602 441.851C387.962 451.131 387.003 458.011 385.083 469.371C383.163 480.731 368.283 541.691 368.283 541.691C368.283 541.691 353.562 548.571 333.402 543.291L337.722 498.011L279.642 466.331" fill="white"/>
<path d="M278.522 383.131C280.762 384.891 300.762 387.291 304.922 396.411C309.082 405.531 315.483 452.891 315.483 452.891C315.483 452.891 303.482 470.651 282.842 464.411C276.762 462.491 244.922 404.411 244.122 398.331C241.722 382.491 278.522 383.131 278.522 383.131Z" fill="#CCCCCC"/>
<path d="M239.323 485.211C238.363 482.811 237.563 480.411 236.923 477.851C232.123 458.651 228.923 386.971 261.083 389.851C296.443 393.051 284.442 481.691 320.443 478.971C356.443 476.251 371.003 485.531 356.283 499.451C327.003 527.451 257.243 528.091 239.323 485.211Z" fill="#A6B1F7"/>
<path d="M291.322 358.331C291.482 359.771 294.203 380.411 287.963 385.051C281.723 389.691 268.123 378.811 267.803 373.371C267.483 367.931 262.843 356.571 268.603 353.851C274.363 351.131 289.562 348.251 291.322 358.331Z" fill="#FFE0CE"/>
<path d="M296.603 436.571C299.963 442.651 306.683 445.851 313.563 444.891C325.243 443.291 342.523 414.491 342.523 414.491C342.523 414.491 338.842 392.571 328.442 390.651C328.442 390.651 315.163 407.611 313.083 408.091C311.003 408.571 304.923 396.251 304.923 396.251" fill="#CCCCCC"/>
<path d="M290.042 392.571C287.482 390.811 283.803 389.371 284.603 385.851C285.243 382.811 288.442 380.571 288.442 377.371C288.442 374.171 287.323 371.131 285.083 368.891C283.643 367.451 282.043 366.651 283.003 364.411C283.803 362.971 284.923 361.851 286.363 361.051L293.083 361.371C293.083 361.371 297.723 349.851 285.563 342.811C277.723 338.171 264.922 339.291 258.522 346.011C256.762 347.931 255.322 350.011 254.042 352.251C252.602 355.131 250.683 357.691 248.283 359.771C245.723 361.691 243.802 363.611 243.322 367.131C242.842 370.651 244.123 372.731 245.563 375.451C247.323 378.651 244.603 380.891 242.363 383.131C240.123 385.371 238.043 388.091 237.883 391.291C237.883 398.331 239.162 405.211 241.722 411.771C245.242 420.731 255.482 424.411 264.442 422.971C272.282 421.851 302.523 403.131 291.003 393.211C290.683 393.051 290.362 392.731 290.042 392.571Z" fill="black"/>
</svg>
