<svg width="800" height="800" viewBox="0 0 800 800" fill="none" xmlns="http://www.w3.org/2000/svg">
<path opacity="0.18" d="M112.656 155.248C71.952 202.64 54.4 265.392 42.576 326.736C30.384 390.192 23.104 454.512 20.784 519.088C19.424 556.992 21.632 599.52 49.184 625.568C59.488 635.328 72.432 641.728 85.376 647.568C108.416 658.016 132.384 667.232 157.536 670.048C199.216 674.72 240.624 661.648 280.512 648.672C350.784 625.808 423.84 602.48 497.168 611.728C531.168 616.016 563.92 627.232 597.712 632.96C631.504 638.688 668.096 638.432 697.76 621.28C718.4 609.328 733.968 590.16 746.256 569.728C773.84 523.856 786.864 470.448 791.024 417.056C793.072 390.688 793.04 363.984 787.936 338.032C782.096 308.384 769.808 280.464 757.408 252.912C742.224 219.12 726.496 185.232 704.768 155.2C683.056 125.168 654.72 98.8963 620.256 85.3443C554.64 59.5683 482.912 82.3683 416.608 92.7363C382.736 98.0003 347.696 101.408 313.888 93.7763C297.616 90.1123 284.56 82.5603 267.872 81.9683C250.272 81.3443 231.408 85.4723 214.608 90.3203C175.392 101.632 139.296 124.192 112.656 155.232V155.248Z" fill="#68E1FD"/>
<path opacity="0.18" d="M403.632 594.512C578.119 594.512 719.568 578.215 719.568 558.112C719.568 538.009 578.119 521.712 403.632 521.712C229.145 521.712 87.696 538.009 87.696 558.112C87.696 578.215 229.145 594.512 403.632 594.512Z" fill="#68E1FD"/>
<path d="M394.784 321.568H339.072V367.072H394.784V321.568Z" fill="#68E1FD"/>
<path d="M532.544 366.56H236.592V375.984H532.544V366.56Z" fill="white"/>
<path d="M532.544 372.048H236.592V375.984H532.544V372.048Z" fill="#D9DBE2"/>
<path d="M441.664 228.208H299.44C290.162 228.208 282.64 235.73 282.64 245.008V322.704C282.64 331.982 290.162 339.504 299.44 339.504H441.664C450.942 339.504 458.464 331.982 458.464 322.704V245.008C458.464 235.73 450.942 228.208 441.664 228.208Z" fill="white"/>
<path opacity="0.41" d="M458.464 312.224V322.736C458.464 332 450.96 339.52 441.696 339.536H299.44C290.176 339.504 282.688 331.968 282.704 322.704V312.192L458.464 312.224Z" fill="#68E1FD"/>
<path d="M582.272 143.808H448.816C433.935 143.808 421.872 155.871 421.872 170.752V182.016C421.872 196.896 433.935 208.96 448.816 208.96H582.272C597.153 208.96 609.216 196.896 609.216 182.016V170.752C609.216 155.871 597.153 143.808 582.272 143.808Z" fill="white"/>
<path d="M536.032 230.48L519.136 206.496H536.032V230.48Z" fill="white"/>
<path d="M639.04 445.407C639.04 445.407 671.536 550.223 668 552.799C664.48 555.375 662.24 548.383 662.24 548.383L629.472 450.975L639.04 445.423V445.407Z" fill="#68E1FD"/>
<path d="M569.184 457.503L568.88 458.255L531.856 553.247C531.296 554.719 530.448 556.063 529.376 557.199C528.528 558.223 527.008 558.367 525.984 557.519C525.952 557.487 525.904 557.455 525.872 557.423C522.528 554.687 557.312 457.199 557.312 457.199L569.184 457.519V457.503Z" fill="#68E1FD"/>
<path d="M596.912 450.544C596.912 450.544 595.744 560.272 591.616 561.632C587.488 562.992 587.488 555.664 587.488 555.664L586.08 452.88L596.896 450.544H596.912Z" fill="#68E1FD"/>
<path d="M633.232 446.688C633.232 446.688 668.608 548.303 665.056 550.831C661.504 553.359 662.24 548.383 662.24 548.383L629.472 450.975L633.232 446.704V446.688Z" fill="url(#paint0_linear_902_163)"/>
<path d="M568.88 458.272L531.856 553.264C531.296 554.736 530.448 556.08 529.376 557.216C529.504 546.336 561.024 458.096 561.024 458.096L568.896 458.272H568.88Z" fill="url(#paint1_linear_902_163)"/>
<path d="M596.912 450.544C596.912 450.544 595.744 560.272 591.616 561.632C587.488 562.992 590.032 553.36 590.032 553.36L591.488 451.744L596.896 450.544H596.912Z" fill="url(#paint2_linear_902_163)"/>
<path d="M668.768 420.336C661.008 438.224 643.568 450.56 624.864 456.096C610.288 460.4 594.928 461.072 579.648 460.192C575.376 459.968 571.088 459.648 566.8 459.216C559.328 458.464 551.744 457.488 544.752 454.752C537.76 452.016 531.232 447.296 527.68 440.624C525.52 436.24 524.32 431.424 524.176 426.544C523.44 414 527.408 400.656 537.024 392.672C544.576 386.368 554.416 383.904 562.24 378.064C571.008 371.488 580 365.616 589.264 359.696C598.544 353.792 607.952 347.824 618.32 344.048C628.688 340.272 640.256 338.88 650.752 342.208C654.384 343.376 659.984 346.192 665.456 359.6C673.408 378.768 677.008 401.296 668.768 420.32V420.336Z" fill="#2F3653"/>
<path d="M611.328 293.312C607.6 298.416 596.256 303.344 596.256 303.344C594.944 298.304 597.744 296.432 597.744 296.432C600.656 296.688 604.464 289.6 603.216 287.36C601.68 284.576 599.536 285.568 598.112 286.768C595.136 284.448 593.28 281.008 592.96 277.248C592.768 275.056 596.544 268.896 589.312 266.224C582.08 263.552 571.904 266.224 571.904 266.224C571.904 266.224 569.28 259.488 577.744 256.256C596.752 248.992 619.344 261.376 618.08 282.672C617.744 288.448 617.36 294.992 621.344 299.168C623.536 301.44 626.608 302.528 629.52 303.68C633.312 305.152 637.168 306.944 639.84 310.032C642.512 313.12 643.632 317.872 641.52 321.36C640.512 323.024 638.768 324.624 639.184 326.528C639.472 327.376 639.984 328.144 640.64 328.752C645.008 333.44 647.808 339.36 648.672 345.696C649.488 352.08 647.472 358.512 643.152 363.296C637.312 369.424 627.968 371.024 619.6 369.76C612.832 368.736 606.128 365.936 601.52 360.848C594.512 353.104 593.632 341.856 591.68 331.648C591.568 330.384 591.056 329.2 590.224 328.24C588.176 326.32 584.896 327.872 582.112 327.808C577.28 327.696 574.048 322.416 573.936 317.6C573.824 312.784 575.776 308.256 576.752 303.472C577.728 298.688 577.424 293.184 573.776 290.032C572.416 288.864 570.704 288.128 569.232 287.072C562.72 282.4 563.104 271.616 568.656 265.824C574.208 260.032 583.136 258.608 591.04 259.984C597.392 261.152 611.744 264.656 614.688 270.496C617.632 276.336 615.088 288.144 611.328 293.264V293.312Z" fill="#C14834"/>
<path d="M562.96 323.744L532.32 355.28L491.648 333.84C486.624 330.752 480.8 329.184 474.912 329.36C474.304 329.36 473.488 329.712 473.632 330.288C473.776 330.864 474.448 330.912 474.56 331.456C474.672 332 474.016 332.32 473.472 332.432L463.76 334.592C462.336 334.912 460.608 335.584 460.528 337.04C460.608 338.032 461.152 338.912 461.984 339.44C468.4 344.784 477.392 345.952 485.712 345.168C486.512 345.056 487.328 345.056 488.144 345.168C488.928 345.36 489.696 345.68 490.384 346.112C493.52 347.856 496.576 349.76 499.504 351.824C507.488 357.424 514.624 364.176 522.72 369.616C524.352 370.896 526.288 371.728 528.352 372.016C530.176 371.984 531.984 371.552 533.616 370.736C545.296 366.064 557.264 361.072 566.16 352.176C566.944 351.472 567.584 350.608 568.048 349.648C568.368 348.688 568.528 347.664 568.496 346.64C568.608 342.368 568.56 338.08 568.336 333.792C568.368 331.84 567.936 329.904 567.088 328.144C566.16 326.368 564.144 325.424 562.176 325.872" fill="#FDBAAC"/>
<path d="M543.584 357.007C542.592 357.775 541.504 358.415 540.368 358.943C537.888 359.983 535.104 359.791 532.416 359.711C528.352 359.615 524.272 359.855 520.24 360.431C519.232 360.495 518.256 360.815 517.392 361.327C516.528 361.887 516.128 362.943 516.416 363.951C516.688 364.479 517.088 364.927 517.584 365.247C520.848 367.871 524.352 370.607 528.512 371.087C533.488 371.743 538.256 369.103 542.528 366.559L551.472 361.407C552.816 360.751 553.984 359.791 554.88 358.623C556.128 356.703 556.416 351.311 553.392 350.751C550.912 350.255 545.52 355.583 543.6 357.007H543.584Z" fill="#DEA095"/>
<path d="M567.472 315.856C568.064 315.664 568.672 315.536 569.28 315.488C572.368 315.2 575.872 315.952 578.96 316.096C583.312 316.288 587.68 316.384 592.048 316.24C600.384 316 614.048 315.072 621.488 324.176C630.72 335.424 622.768 355.2 616.32 370.032C613.984 375.568 612.752 393.504 613.984 406.608C613.984 406.608 588.048 415.68 565.248 410.96L557.424 381.6C556.992 380.08 555.632 378.464 554.976 377.024C553.168 373.104 551.856 368.96 551.056 364.72C550.128 359.808 548.72 351.648 550.816 346.928C551.136 346.208 552.224 345.648 552.304 344.88C552.432 343.824 551.04 342.08 550.608 341.136C549.184 338.08 548.032 334.896 547.184 331.632C546.992 331.136 546.976 330.576 547.12 330.064C547.328 329.664 547.632 329.312 548 329.056C551.424 326.304 554.864 323.568 558.512 321.088C560.992 319.376 564.304 316.832 567.456 315.872L567.472 315.856Z" fill="white"/>
<path d="M596.352 295.088C594.624 300.592 587.392 310.272 579.12 308.048C581.104 311.632 580.848 316.048 578.464 319.392C578.464 319.392 581.152 326.256 599.296 316.112C599.296 316.112 594.384 315.696 595.728 305.6C596.128 302.144 597.36 298.816 599.296 295.936C598.592 296.624 597.472 296.608 596.784 295.904C596.576 295.68 596.416 295.408 596.336 295.12L596.352 295.088Z" fill="#FDBAAC"/>
<path d="M595.52 297.855C595.52 297.855 591.536 314.783 584.784 314.063C578.032 313.343 578.464 303.055 578.464 303.055L595.52 297.855Z" fill="#DEA095"/>
<path d="M630.784 330.32C631.248 325.12 629.696 319.952 626.464 315.872C622.672 311.456 616.88 309.472 611.472 307.328C609.136 306.416 606.704 305.232 605.744 302.976C605.104 301.488 605.248 299.776 604.992 298.16C604.736 296.544 603.824 294.8 602.16 294.576C601.152 294.512 600.144 294.864 599.392 295.552C595.952 298.192 594.864 303.04 595.648 307.296C596.432 311.552 598.784 315.328 601.2 318.912C603.632 322.48 606.192 326.064 607.584 330.16C608.624 333.28 608.928 336.592 609.68 339.792C611.36 346.8 617.264 351.008 624.192 347.008C628.976 344.24 630.464 335.248 630.8 330.336L630.784 330.32Z" fill="#C14834"/>
<path d="M577.68 256.288C577.68 256.288 566.672 256.928 563.408 272.88C560.144 288.816 576.032 288.56 576.032 288.56L585.696 260.896L577.68 256.288Z" fill="#C14834"/>
<path d="M585.008 308.848C575.04 309.68 568.992 300.384 567.872 288.24C567.76 286.912 567.712 285.552 567.712 284.16C567.696 280.192 568.144 276.256 569.072 272.4C573.424 253.712 599.984 261.216 599.984 261.216C620.784 270.544 602.336 307.408 585.024 308.848H585.008Z" fill="#FDBAAC"/>
<path d="M577.888 260.8C580.48 269.808 583.952 282.608 592.752 287.552C593.76 288.112 595.616 289.056 596.816 288.816C598.016 288.576 597.984 287.472 599.088 286.48C599.792 285.776 600.848 285.6 601.744 286.032C602.464 286.576 602.88 287.456 602.832 288.368C602.832 290.608 601.664 292.704 599.744 293.872C598.88 294.272 598.048 294.752 597.264 295.296C596.384 296.16 595.872 297.312 595.792 298.544C595.488 301.92 597.168 305.168 600.096 306.864C600.272 306.976 600.48 307.04 600.688 307.056C600.944 307.008 601.168 306.864 601.344 306.672L605.28 303.072C607.152 301.488 608.848 299.68 610.32 297.712C612.128 295.04 613.104 291.888 613.12 288.656C613.12 287.2 612.528 285.728 612.56 284.32C612.8 282.48 613.296 280.672 614.016 278.944C614.896 276.72 615.344 274.336 615.344 271.936C615.024 267.264 611.136 263.552 606.944 261.424C600.304 258.144 592.64 257.776 585.248 257.68C583.776 257.584 582.288 257.792 580.896 258.272C579.616 258.992 579.104 260.384 577.92 260.816L577.888 260.8Z" fill="#C14834"/>
<path d="M595.52 374.272L603.12 390.976C603.12 390.976 619.472 370.576 625.696 348.56C631.136 329.104 621.488 324.208 621.488 324.208C614.112 321.504 609.088 332.016 601.84 353.28C597.84 364.928 595.504 374.272 595.504 374.272H595.52Z" fill="#FDBAAC"/>
<path d="M603.136 390.928C603.136 390.928 603.424 377.344 596.8 374.64C590.176 371.936 543.76 364.672 543.76 364.672L539.408 369.696C539.408 369.696 584.992 395.984 603.136 390.928Z" fill="#FDBAAC"/>
<path d="M527.904 426.831L528.464 426.239C526.208 428.767 524.704 430.591 524.24 431.151C525.392 429.647 526.608 428.191 527.904 426.815V426.831Z" fill="#DC9ED5"/>
<path d="M616.768 429.487C615.408 437.391 610.016 444.191 603.44 448.799C596.864 453.407 589.184 456.127 581.488 458.463C576.944 459.855 574.112 465.679 570.016 468.095C568.528 468.831 567.232 469.903 566.24 471.247C564.752 473.663 565.488 476.799 566.24 479.535C569.728 491.631 573.232 503.711 576.752 515.807C578.496 521.807 580.256 528.175 578.592 534.223C576.928 540.255 570.576 545.455 564.656 543.455C553.072 524.767 541.504 506.079 529.92 487.391C512.544 459.359 524.208 464.831 536.192 445.631C541.36 437.359 581.904 403.231 581.904 403.231C592.272 401.727 602.8 401.023 612.816 400.447C614 410.191 618.464 419.807 616.768 429.487Z" fill="#68E1FD"/>
<path d="M581.936 403.2C581.936 403.2 540.576 436.864 536.224 445.6C524.096 469.984 529.952 487.36 529.952 487.36C519.824 503.648 509.712 519.92 499.584 536.208C492.576 536.352 483.12 534.448 482.768 527.424C482.816 525.44 483.28 523.488 484.144 521.712C491.776 502.704 499.408 483.696 507.024 464.704C511.552 453.392 516.224 441.856 523.472 432.16L524.112 431.312V431.248L524.208 431.136C524.672 430.576 526.176 428.8 528.432 426.224V426.16C535.008 418.816 547.84 405.664 559.712 400.464C559.712 400.464 573.488 404.256 581.792 403.248L581.92 403.216L581.936 403.2Z" fill="#68E1FD"/>
<path d="M581.936 403.2C581.936 403.2 540.576 436.864 536.224 445.6C524.096 469.984 529.952 487.36 529.952 487.36C519.824 503.648 509.712 519.92 499.584 536.208C492.576 536.352 483.12 534.448 482.768 527.424C482.816 525.44 483.28 523.488 484.144 521.712C491.776 502.704 499.408 483.696 507.024 464.704C511.552 453.392 516.224 441.856 523.472 432.16L524.112 431.312V431.248L524.208 431.136C524.672 430.576 526.176 428.8 528.432 426.224V426.16C535.008 418.816 547.84 405.664 559.712 400.464C559.712 400.464 573.488 404.256 581.792 403.248L581.92 403.216L581.936 403.2Z" fill="url(#paint3_linear_902_163)"/>
<path d="M560.688 554.144C557.984 556.64 554.368 559.136 554.496 562.832C554.496 563.2 554.592 563.552 554.784 563.856C555.168 564.224 555.664 564.432 556.192 564.448C564.528 565.376 572.288 560.288 578.768 554.944C580.4 553.6 582.112 552.064 582.496 549.984C582.88 547.904 581.776 545.808 580.832 543.904C579.296 540.784 578.048 537.552 577.088 534.208C577.376 535.2 573.184 538.736 572.48 539.344C570.992 540.656 568.784 541.6 567.616 543.184C566.448 544.768 566.208 546.688 565.28 548.272C564.064 550.464 562.512 552.432 560.688 554.144Z" fill="#EB9D80"/>
<path d="M474.608 538.512C471.68 539.552 468.272 540.112 466.432 542.608C466.064 543.056 465.856 543.6 465.808 544.16C465.808 545.696 467.6 546.496 469.104 546.848C475.12 548.08 481.328 547.216 487.408 546.336C489.376 546.368 491.056 544.88 491.232 542.912L493.632 535.536C493.728 535.328 493.76 535.072 493.712 534.848C493.616 534.624 493.44 534.432 493.216 534.304C491.568 533.152 489.824 532.16 488 531.344C485.536 530.176 485.376 530.288 483.728 532.224C481.28 535.072 478.144 537.248 474.608 538.512Z" fill="#EB9D80"/>
<path d="M538.784 363.743C533.984 362.991 528.592 362.367 524.704 365.279C522.864 366.863 521.36 368.799 520.272 370.975C519.52 372.271 518.736 373.823 519.36 375.183C519.984 376.543 521.504 376.959 522.864 377.295C527.296 378.367 532.064 379.375 536.304 377.711C539.44 376.543 541.968 373.887 545.248 373.103C545.808 373.023 546.336 372.847 546.832 372.559C547.28 372.191 547.6 371.679 547.728 371.103C549.696 364.511 543.184 364.351 538.8 363.727L538.784 363.743Z" fill="#FDBAAC"/>
<path d="M487.36 551.936C487.2 552.272 486.928 552.576 486.608 552.784C486.128 552.96 485.6 552.96 485.12 552.784C482.416 552.416 479.664 552.32 476.944 552.496C471.344 552.4 465.776 551.904 460.256 550.976C457.856 550.624 455.168 550.128 453.792 548.144C453.616 547.92 453.504 547.648 453.472 547.36C453.472 546.928 453.664 546.512 453.952 546.192C456.368 543.296 459.552 541.12 463.136 539.936C464.464 539.376 465.872 539.072 467.312 539.024C468.768 538.992 470.16 539.616 471.12 540.72C472.112 541.984 472.288 543.792 473.376 544.928C474.464 546.064 476.336 546.208 477.968 546.096C479.872 546.032 481.76 545.808 483.616 545.456C485.024 545.184 487.12 544.224 488.528 544.576C491.808 545.472 488.304 550.304 487.376 551.952L487.36 551.936Z" fill="#68E1FD"/>
<path d="M584.608 554.255C584.672 554.687 584.608 555.135 584.448 555.535C584.096 556.015 583.6 556.351 583.04 556.511C580.224 557.887 577.536 559.551 575.056 561.471C569.728 564.927 564.144 567.983 558.368 570.591C555.872 571.759 553.008 573.007 550.432 572.015C550.128 571.919 549.84 571.727 549.632 571.487C549.376 571.071 549.28 570.575 549.344 570.079C549.776 565.791 551.392 561.727 554.016 558.303C554.912 556.927 556.064 555.743 557.408 554.799C558.768 553.855 560.48 553.551 562.08 553.983C563.824 554.543 565.104 556.175 566.896 556.527C568.688 556.879 570.512 555.855 572.016 554.767C573.776 553.487 575.424 552.079 576.976 550.543C578.144 549.375 579.488 547.151 581.072 546.591C584.688 545.295 584.496 552.063 584.624 554.239L584.608 554.255Z" fill="#68E1FD"/>
<path d="M628.672 330.832C629.824 334.4 630.608 338.08 631.008 341.792L631.728 346.816C631.984 347.856 631.92 348.944 631.568 349.952C630.736 351.712 627.392 350.992 625.728 351.264C622.768 351.744 619.808 352.208 616.832 352.672C610.896 353.584 604.96 354.448 599.024 355.296C598.704 352.288 598.784 349.232 599.248 346.24C599.792 343.392 601.024 340.72 601.728 337.904C602.304 335.568 602.512 333.232 603.104 330.896C604.352 326.096 607.216 321.872 611.216 318.928C617.472 314.368 626.64 325.424 628.544 330.4L628.672 330.848V330.832Z" fill="white"/>
<path d="M668.768 420.336C661.008 438.224 643.568 450.56 624.864 456.096C610.288 460.4 594.928 461.072 579.648 460.192C579.648 459.152 580.256 458.528 581.536 458.464C596.176 457.728 602.24 438.496 606.624 428.704C611.008 418.912 614.016 406.624 642.592 395.28C670.432 384.256 667.04 363.504 668.432 367.696C675.008 387.36 677.024 401.328 668.768 420.352V420.336Z" fill="#2F3653"/>
<path d="M670.768 421.151C663.008 439.023 645.568 451.359 626.864 456.911C612.288 461.215 592.704 461.951 577.44 461.055C577.44 460.031 580.272 458.527 581.536 458.463C596.176 457.727 602.56 434.879 606.96 425.087C611.344 415.295 615.376 409.551 642.608 395.263C683.296 373.935 653.856 344.927 653.344 343.071C663.104 346.207 668.528 366.031 669.904 370.223C676.48 389.887 679.024 402.127 670.784 421.167L670.768 421.151Z" fill="white"/>
<path opacity="0.23" d="M615.504 453.775C603.136 456.927 590.048 457.039 578 461.311C581.824 459.951 589.824 462.063 594.08 461.935C599.92 461.759 605.744 461.151 611.488 460.095C621.664 458.255 635.136 455.423 643.52 449.151C638.048 444.495 621.552 452.239 615.504 453.775Z" fill="#68E1FD"/>
<path d="M622.912 562.88C622.72 562.992 622.512 563.088 622.304 563.152C621.92 563.248 621.52 563.28 621.136 563.216C616.8 562.672 595.536 461.392 595.536 461.392L598.448 459.696C598.656 459.584 598.896 459.456 599.12 459.36C602.16 458.08 605.664 459.504 606.944 462.544C606.976 462.624 607.008 462.688 607.024 462.768V462.88C607.152 463.184 607.232 463.504 607.296 463.824L624.016 556.576C624.016 556.576 625.008 561.456 622.912 562.88Z" fill="#68E1FD"/>
<path d="M623.392 554.543C623.392 554.543 623.216 560.383 622.912 562.879C622.72 564.047 622.544 564.511 622.304 563.151C620.208 550.895 602.848 475.695 599.088 459.375C602.128 458.095 605.632 459.519 606.912 462.559C606.944 462.639 606.976 462.703 606.992 462.783V462.895L623.376 554.543H623.392Z" fill="url(#paint4_linear_902_163)"/>
<path d="M174.976 445.407C174.976 445.407 142.544 550.223 146.048 552.799C149.552 555.375 151.792 548.383 151.792 548.383L184.592 450.975L174.976 445.423V445.407Z" fill="#68E1FD"/>
<path d="M244.816 457.503L245.12 458.255L282.144 553.247C282.704 554.719 283.552 556.063 284.624 557.199C285.472 558.223 286.992 558.367 288.016 557.519C288.048 557.487 288.096 557.455 288.128 557.423C291.52 554.687 256.736 457.247 256.736 457.247L244.816 457.519V457.503Z" fill="#68E1FD"/>
<path d="M217.168 450.544C217.168 450.544 218.336 560.272 222.448 561.632C226.56 562.992 226.624 555.664 226.624 555.664L228.032 452.88L217.168 450.544Z" fill="#68E1FD"/>
<path d="M180.784 446.688C180.784 446.688 145.408 548.303 148.96 550.831C152.496 553.359 151.776 548.383 151.776 548.383L184.592 450.975L180.784 446.688Z" fill="url(#paint5_linear_902_163)"/>
<path d="M245.12 458.272L282.144 553.264C282.704 554.736 283.552 556.08 284.624 557.216C284.512 546.336 252.976 458.096 252.976 458.096L245.104 458.272H245.12Z" fill="url(#paint6_linear_902_163)"/>
<path d="M217.168 450.544C217.168 450.544 218.336 560.272 222.448 561.632C226.56 562.992 224.032 553.36 224.032 553.36L222.576 451.744L217.184 450.544H217.168Z" fill="url(#paint7_linear_902_163)"/>
<path d="M145.248 420.335C153.008 438.223 170.448 450.559 189.152 456.095C203.728 460.399 219.088 461.071 234.368 460.191C238.64 459.967 242.912 459.631 247.152 459.215C254.624 458.463 262.208 457.503 269.2 454.767C276.192 452.031 282.72 447.311 286.272 440.639C288.448 436.255 289.632 431.439 289.776 426.559C290.512 414.015 286.544 400.671 276.928 392.687C269.376 386.383 259.536 383.919 251.712 378.079C242.944 371.503 233.952 365.631 224.688 359.711C215.408 353.807 206 347.839 195.632 344.063C185.264 340.287 173.696 338.895 163.2 342.223C159.568 343.391 153.968 346.207 148.496 359.615C140.608 378.783 137.008 401.311 145.248 420.335Z" fill="#2F3653"/>
<path d="M173.04 355.232C174.432 358.224 175.52 361.36 176.288 364.576C176.992 368.496 178.192 372.352 178.88 376.32C180.272 384.256 180.928 392.304 180.848 400.368C180.848 403.552 180.848 407.152 183.12 409.36C184.656 410.848 186.864 411.328 188.96 411.696C193.088 412.528 196.816 414.16 200.928 414.864C205.424 415.52 209.968 415.792 214.496 415.68C227.888 415.68 252.784 414.192 251.952 395.52C251.152 374.448 249.296 353.424 246.4 332.544C245.392 325.472 245.232 317.296 243.04 310.496C241.248 304.768 234.56 304.72 229.024 305.296L227.968 305.408C226.896 305.52 225.824 305.648 224.784 305.776C217.408 306.544 210 306.768 202.592 306.432C194.256 306.176 180.928 305.344 172.736 313.2C172.16 313.744 171.632 314.304 171.136 314.912C162.992 324.848 167.36 340.976 173.024 355.232H173.04Z" fill="white"/>
<path opacity="0.43" d="M204.08 353.151C204.8 362.495 202.144 372.463 207.04 380.271C207.264 380.703 207.616 381.071 208.064 381.295C208.768 381.439 209.504 381.359 210.16 381.055C213.104 380.463 215.968 382.383 216.56 385.327C216.608 385.551 216.64 385.759 216.656 385.983C219.008 384.207 220.48 381.503 220.704 378.559C220.816 376.943 220.704 374.959 222.064 374.079C223.824 372.911 226.08 374.975 226.448 377.039C226.816 379.103 226.24 381.263 226.816 383.279C227.568 385.903 230.192 387.631 232.848 388.191C235.552 388.591 238.32 388.591 241.024 388.191C242.992 387.903 245.008 388.111 246.864 388.815C248.656 389.663 250.048 391.711 249.504 393.631C248.848 395.903 246.096 396.703 243.76 397.135L211.68 403.119L195.168 406.207C191.552 406.879 185.184 410.063 185.072 404.719C184.896 396.735 183.648 388.815 181.36 381.167C180.432 378.079 180.336 374.927 179.44 371.935C178.336 368.303 176.32 364.815 175.088 361.183C172.592 353.887 170.912 346.319 170.08 338.655C169.488 333.263 169.872 326.751 174.496 323.935C177.84 321.919 182.336 322.767 185.472 325.103C189.296 327.935 191.072 332.399 194.608 335.391C198.72 338.895 201.92 342.847 203.296 348.175C203.696 349.807 203.968 351.471 204.08 353.151Z" fill="#D9DBE2"/>
<path d="M220.432 319.855C220.16 320.207 219.968 320.607 219.84 321.023C219.808 321.487 219.904 321.935 220.112 322.351C224.624 333.663 227.44 345.551 230.256 357.391C232.736 367.807 235.216 378.303 235.728 389.007C235.808 389.791 235.744 390.575 235.552 391.343C234.736 393.983 231.296 394.847 229.776 397.119L224.768 391.391C224.448 391.055 224.176 390.655 224 390.223C223.856 389.615 223.856 388.991 224 388.383C225.696 376.943 223.808 365.279 221.136 354.015C218.8 344.351 215.92 334.655 216.096 324.719C216.096 323.551 216.096 322.127 215.2 321.343C214.688 320.991 214.128 320.735 213.536 320.543C210.752 319.183 209.6 315.823 210.96 313.039C210.96 313.007 210.992 312.975 211.008 312.943C212.064 312.927 213.12 312.655 214.064 312.159C215.024 311.663 216.112 311.519 217.152 311.743C219.472 312.543 221.76 317.647 220.432 319.807V319.855Z" fill="#68E1FD"/>
<path d="M172.768 313.216C180.944 305.36 194.288 306.208 202.624 306.448C210.032 306.784 217.44 306.56 224.816 305.792C225.856 305.664 226.928 305.52 228 305.424C223.6 303.632 217.344 304.832 212.656 304.976C205.536 305.216 198.432 305.648 191.312 306.272C184.592 306.896 177.136 308.048 172.768 313.216Z" fill="white"/>
<path d="M198.016 283.84C199.888 289.68 207.424 295.312 216.256 292.88C216.256 292.88 212.752 303.392 217.136 309.808C217.136 309.808 214.272 317.136 194.864 306.304C194.864 306.304 200.112 305.872 198.688 295.104C198.272 291.408 196.96 287.856 194.864 284.768C195.616 285.488 196.816 285.472 197.536 284.72C197.776 284.48 197.936 284.176 198.016 283.84Z" fill="#D5846C"/>
<path d="M207.536 297.424C217.776 300.432 226.112 292 229.904 279.536C230.32 278.176 230.656 276.752 230.96 275.312C231.84 271.168 232.24 266.944 232.128 262.704C231.536 242.272 202.112 244.352 202.112 244.352C178.352 249.648 189.728 292.192 207.536 297.424Z" fill="#EB9D80"/>
<path d="M271.168 424.607L270.56 423.983C272.96 426.687 274.592 428.655 275.088 429.247C273.872 427.663 272.56 426.111 271.168 424.623V424.607Z" fill="#DC9ED5"/>
<path d="M183.552 245.776C185.328 242.08 188.272 239.088 191.952 237.264C195.312 235.488 200.224 235.84 202.976 233.072C204.464 231.584 204.752 229.328 205.6 227.424C206.48 225.504 207.936 223.904 209.776 222.864C210.976 222.176 212.32 221.776 213.696 221.696C217.952 221.504 221.808 224.784 223.456 228.704C224.624 226.784 227.04 226.032 229.296 226.08C234.48 226.192 239.232 229.856 241.376 234.576C242.256 236.432 242.656 238.464 242.544 240.512C242.432 242.576 241.536 244.512 240.048 245.936C239.728 246.272 239.328 246.48 238.88 246.56C238.432 246.64 238 246.384 237.84 245.952C236.368 249.056 234.544 251.968 232.384 254.64C231.664 255.632 230.704 256.432 229.6 256.976C228.496 257.376 227.312 257.44 226.16 257.168C224.592 256.88 223.104 256.304 221.744 255.456C221.504 255.264 221.2 255.168 220.896 255.2C220.592 255.28 220.432 255.584 220.272 255.872C219.424 257.536 217.92 258.768 216.128 259.264C214.576 259.472 212.992 259.408 211.456 259.088C209.344 258.832 207.216 258.832 205.12 259.088C203.84 259.2 202.592 259.6 201.472 260.256C200.112 261.28 199.296 262.896 199.296 264.608C199.296 265.28 199.952 270.768 199.152 270.896C197.856 271.12 197.6 268.976 196.464 268.304C195.328 267.632 194.24 268.496 193.648 269.472C192.672 271.2 192.88 273.344 194.176 274.848C194.576 275.184 194.88 275.6 195.056 276.08C195.12 276.56 195.056 277.056 194.816 277.488L192.816 282.512C190.144 276.192 186.928 270.112 183.232 264.336C181.648 262 179.824 259.392 180.528 256.704C181.232 254.016 184.144 252.032 183.536 249.408C183.424 248.912 183.168 248.432 183.104 247.92C183.056 247.184 183.2 246.432 183.552 245.776Z" fill="#282328"/>
<path d="M200.416 400.832C200.416 400.832 212.88 431.936 222.88 435.2C232.88 438.464 294.944 457.2 294.944 457.2L321.328 546.608L328.144 542.432C330.72 540.848 336.896 538.56 338.464 535.968C340.544 532.576 337.408 523.648 336.816 519.776L334.112 502.256C330.48 478.576 326.848 454.88 323.184 431.184C323.184 428.784 321.68 426.64 319.424 425.824C307.216 419.28 294.672 413.392 281.856 408.144C275.568 405.568 269.232 403.184 262.848 400.928C261.584 400.48 252.224 395.376 251.968 395.568C251.888 395.6 245.248 400.592 200.416 400.848V400.832Z" fill="#2F3653"/>
<path d="M313.92 549.871C311.04 543.519 310.8 536.351 309.968 529.439C309.344 524.223 308.352 519.071 307.36 513.935L293.792 443.055C293.68 439.967 291.616 437.279 288.672 436.367C266.88 425.727 245.456 414.559 223.84 403.503C223.84 403.503 200.48 395.023 183.136 406.863C183.136 406.863 180.8 435.231 190.8 438.495C212.896 445.695 235.152 452.271 257.6 458.239C258.656 458.447 259.648 458.895 260.528 459.519C261.504 460.495 262.192 461.743 262.496 463.087C270.672 487.983 278.848 512.879 286.32 537.967C287.2 540.927 288.08 543.887 288.944 546.831C289.616 549.087 290.112 555.007 291.76 556.575C293.952 558.783 296.832 556.575 299.744 555.407L315.68 548.975L264.144 424.127L256.64 420.271" fill="#231F20"/>
<path d="M349.824 537.871C352.464 537.935 355.088 538.191 357.696 538.655C360.128 538.927 362.432 539.855 364.368 541.359C365.456 542.319 366.192 543.615 366.432 545.055C366.656 546.495 366.192 547.967 365.2 549.039C364.256 549.855 363.152 550.447 361.968 550.783C359.184 551.759 356.4 552.735 353.616 553.695C347.648 555.743 341.584 557.823 335.28 558.175C334.912 558.223 334.528 558.175 334.176 558.063C333.904 557.919 333.664 557.743 333.456 557.519C329.664 553.823 326.096 549.471 325.184 544.255C325.136 544.079 325.136 543.887 325.184 543.711C325.28 543.519 325.44 543.359 325.632 543.247C329.44 540.671 333.632 538.703 338.032 537.407C342.032 536.255 345.792 537.823 349.824 537.903V537.871Z" fill="#2F3653"/>
<path d="M319.616 549.855C322.256 549.919 324.88 550.175 327.488 550.639C329.92 550.911 332.224 551.839 334.16 553.343C335.248 554.303 335.984 555.599 336.224 557.039C336.448 558.479 335.984 559.951 334.992 561.023C334.048 561.839 332.944 562.431 331.76 562.767C328.976 563.743 326.192 564.719 323.408 565.679C317.44 567.727 311.376 569.807 305.072 570.159C304.672 570.223 304.272 570.175 303.904 570.047C303.632 569.903 303.392 569.727 303.184 569.503C299.392 565.807 295.824 561.455 294.912 556.239C294.864 556.063 294.864 555.871 294.912 555.695C295.008 555.503 295.168 555.343 295.36 555.231C299.168 552.655 303.36 550.687 307.76 549.391C311.808 548.239 315.52 549.791 319.616 549.887V549.855Z" fill="#2F3653"/>
<path d="M145.248 420.336C153.008 438.224 170.448 450.56 189.152 456.096C203.728 460.4 219.088 461.072 234.368 460.192C234.368 459.152 233.76 458.528 232.48 458.464C217.84 457.728 211.776 438.496 207.392 428.704C203.008 418.912 200 406.624 171.424 395.28C143.584 384.256 146.976 363.504 145.584 367.696C139.024 387.36 136.992 401.328 145.248 420.352V420.336Z" fill="#2F3653"/>
<path d="M143.248 421.152C151.008 439.024 168.448 451.36 187.152 456.912C201.728 461.216 221.312 461.952 236.576 461.056C236.576 460.032 233.744 458.528 232.48 458.464C217.84 457.728 211.456 434.88 207.056 425.088C202.672 415.296 198.592 409.552 171.408 395.296C130.72 373.968 160.16 344.96 160.672 343.104C150.912 346.24 145.488 366.064 144.112 370.256C137.536 389.904 134.992 402.128 143.232 421.168L143.248 421.152Z" fill="white"/>
<path opacity="0.23" d="M198.512 453.775C210.88 456.927 223.968 457.039 236.016 461.311C232.192 459.951 224.192 462.063 219.936 461.935C214.096 461.759 208.272 461.151 202.528 460.095C192.336 458.255 178.88 455.423 170.48 449.151C175.952 444.495 192.448 452.239 198.496 453.775H198.512Z" fill="#68E1FD"/>
<path d="M191.088 562.88C191.28 562.992 191.488 563.088 191.696 563.152C192.08 563.248 192.48 563.28 192.864 563.216C197.2 562.672 218.464 461.392 218.464 461.392L215.552 459.696C215.344 459.584 215.104 459.456 214.88 459.36C211.84 458.08 208.336 459.504 207.056 462.544C207.024 462.624 206.992 462.688 206.976 462.768V462.88C206.848 463.184 206.752 463.504 206.688 463.824L189.968 556.576C189.968 556.576 188.992 561.456 191.072 562.88H191.088Z" fill="#68E1FD"/>
<path d="M190.608 554.543C190.608 554.543 190.784 560.383 191.088 562.879C191.28 564.047 191.456 564.511 191.696 563.151C193.792 550.895 211.152 475.695 214.912 459.375C211.872 458.095 208.368 459.519 207.088 462.559C207.056 462.639 207.024 462.703 207.008 462.783V462.895L190.624 554.543H190.608Z" fill="url(#paint8_linear_902_163)"/>
<path d="M214.416 412.048C214.16 413.584 213.36 414.96 212.144 415.936C210.848 417.008 209.296 417.712 207.632 417.984C204.464 418.48 201.232 417.616 198.176 416.656C188.368 413.616 178.848 409.76 169.68 405.136C166.672 403.616 163.568 401.92 161.76 399.056C159.76 395.856 159.744 391.824 159.84 388.064C160.288 372.304 161.648 356.592 163.92 341.008C164.896 334.112 164.816 323.424 168.96 316.832C171.024 313.312 174.752 311.104 178.816 310.992C185.376 310.592 190.816 316.832 192.016 323.28C193.216 329.728 191.344 336.336 189.68 342.688C187.344 351.84 185.312 361.136 183.84 370.48C183.152 374.64 182.608 379.152 184.608 382.88C185.552 384.496 186.736 385.952 188.112 387.2C193.664 392.608 199.792 397.408 206.368 401.504C210.352 404.016 215.088 407.408 214.4 412.032L214.416 412.048Z" fill="white"/>
<path d="M306.944 357.472C306.288 360.8 304.208 363.664 301.248 365.296C298.32 366.896 295.168 368.048 291.904 368.736L278.496 372.24C271.488 374.08 263.04 375.552 257.84 370.48C255.952 368.752 255.072 366.176 255.504 363.664C255.648 363.04 255.92 362.448 256.304 361.92C257.296 360.832 258.48 359.952 259.808 359.312C263.68 357.024 267.04 353.968 269.696 350.352C261.76 347.392 253.488 344.352 246.832 339.216C245.6 338.288 244.416 337.264 243.328 336.176C238.448 331.248 235.12 324.992 233.792 318.192C233.2 315.344 232.208 310.576 233.248 307.744C234.656 303.872 237.328 305.664 241.104 306.752C255.584 310.912 268.96 318.32 280.928 327.36C287.824 332.64 294.352 338.384 300.448 344.56C303.968 348.08 307.616 352.496 306.912 357.472H306.944Z" fill="white"/>
<path opacity="0.38" d="M275.072 354.799C270.4 358.031 265.584 361.151 260.736 364.143C259.328 365.023 257.36 365.871 256.16 364.703C255.824 364.399 255.616 363.983 255.536 363.535C255.68 362.911 255.952 362.319 256.336 361.791C257.328 360.703 258.512 359.823 259.84 359.183C263.712 356.895 267.072 353.839 269.728 350.223C261.76 347.391 253.488 344.367 246.848 339.215V338.239C246.848 337.071 246.608 328.575 245.936 328.159L275.792 346.639C276.96 347.183 277.888 348.111 278.432 349.279C279.184 351.439 277.024 353.455 275.072 354.799Z" fill="#D9DBE2"/>
<path d="M246.144 372.175C245.296 374.367 244.832 376.687 244.8 379.039C244.464 382.223 244.976 385.455 246.288 388.383C247.76 391.215 250.816 393.423 253.984 393.055C256.176 392.735 258.128 391.439 259.28 389.551C260.416 387.663 261.024 385.503 261.04 383.295C262.496 382.927 263.312 381.359 263.664 379.887C263.856 378.383 264.32 376.943 265.04 375.615C265.92 374.367 267.456 373.663 268.208 372.319C268.832 371.023 268.784 369.519 268.08 368.271C266.16 364.575 260.176 361.375 256.24 363.087C252.304 364.799 247.952 368.015 246.128 372.191L246.144 372.175Z" fill="#EB9D80"/>
<path d="M208.48 415.551C210.944 419.215 216.16 419.711 220.528 419.055C224.992 418.415 229.296 416.991 233.264 414.847C234.32 414.415 235.184 413.615 235.696 412.591C235.92 411.871 235.92 411.103 235.696 410.399C234.976 407.983 233.28 405.983 231.024 404.863C228.784 403.759 226.416 402.975 223.952 402.527C220 401.631 215.776 400.735 211.952 402.063C208.128 403.391 207.424 403.231 206.992 407.055C206.768 409.839 206.88 413.199 208.48 415.551Z" fill="#EB9D80"/>
<path d="M196.512 301.424L204.448 305.536C207.248 306.832 209.872 308.48 212.256 310.448C210.816 313.664 209.872 317.072 209.472 320.576C207.392 317.984 204.96 315.664 202.272 313.712C199.76 312.048 196.848 311.024 194.496 309.12C191.728 306.88 195.12 303.728 196.544 301.44L196.512 301.424Z" fill="white"/>
<path d="M221.392 309.231L225.088 314.159C225.344 314.447 225.52 314.783 225.6 315.151C222.752 313.807 219.744 312.831 216.656 312.223C216.32 312.223 216 312.047 215.776 311.775C215.664 311.535 215.648 311.247 215.712 310.991C215.936 309.135 215.632 307.263 214.816 305.583C214.48 305.055 214.256 304.463 214.176 303.855C214.032 301.119 216.928 303.999 217.616 304.655C218.976 306.079 220.24 307.599 221.392 309.215V309.231Z" fill="white"/>
<path opacity="0.43" d="M212.144 415.936C210.848 417.008 209.296 417.712 207.632 417.984C204.464 418.48 201.232 417.616 198.176 416.656C188.368 413.616 178.848 409.76 169.68 405.136C166.672 403.616 163.568 401.92 161.76 399.056C159.76 395.856 159.744 391.824 159.84 388.064C160.288 372.304 161.648 356.592 163.92 341.008C164.896 334.112 164.816 323.424 168.96 316.832C170.176 317.184 171.376 317.616 172.528 318.112C174.112 318.64 175.472 319.696 176.4 321.088C177.408 322.928 176.992 325.216 176.512 327.296C172.16 347.136 169.152 367.264 167.536 387.504C167.088 389.44 167.904 391.44 169.552 392.544C173.536 396.144 177.776 399.424 182.256 402.384C189.264 407.056 197.76 412.4 206.112 413.952C208.48 414.4 210.416 414.432 212.16 415.92L212.144 415.936Z" fill="#D9DBE2"/>
<defs>
<linearGradient id="paint0_linear_902_163" x1="629.472" y1="499.119" x2="665.312" y2="499.119" gradientUnits="userSpaceOnUse">
<stop stop-color="#231F20"/>
<stop offset="0.08" stop-color="#231F20" stop-opacity="0.69"/>
<stop offset="0.21" stop-color="#231F20" stop-opacity="0.32"/>
<stop offset="1" stop-color="#231F20" stop-opacity="0"/>
</linearGradient>
<linearGradient id="paint1_linear_902_163" x1="548.928" y1="445.36" x2="549.488" y2="634.352" gradientUnits="userSpaceOnUse">
<stop stop-color="#231F20"/>
<stop offset="0.08" stop-color="#231F20" stop-opacity="0.69"/>
<stop offset="0.21" stop-color="#231F20" stop-opacity="0.32"/>
<stop offset="1" stop-color="#231F20" stop-opacity="0"/>
</linearGradient>
<linearGradient id="paint2_linear_902_163" x1="630.88" y1="499.552" x2="484.688" y2="525.712" gradientUnits="userSpaceOnUse">
<stop stop-color="#231F20"/>
<stop offset="0.08" stop-color="#231F20" stop-opacity="0.69"/>
<stop offset="0.21" stop-color="#231F20" stop-opacity="0.32"/>
<stop offset="1" stop-color="#231F20" stop-opacity="0"/>
</linearGradient>
<linearGradient id="paint3_linear_902_163" x1="572.512" y1="480.272" x2="500.928" y2="458.368" gradientUnits="userSpaceOnUse">
<stop stop-color="#231F20"/>
<stop offset="0.08" stop-color="#231F20" stop-opacity="0.69"/>
<stop offset="0.21" stop-color="#231F20" stop-opacity="0.32"/>
<stop offset="1" stop-color="#231F20" stop-opacity="0"/>
</linearGradient>
<linearGradient id="paint4_linear_902_163" x1="652.784" y1="486.383" x2="554.656" y2="545.583" gradientUnits="userSpaceOnUse">
<stop stop-color="#231F20"/>
<stop offset="0.08" stop-color="#231F20" stop-opacity="0.69"/>
<stop offset="0.21" stop-color="#231F20" stop-opacity="0.32"/>
<stop offset="1" stop-color="#231F20" stop-opacity="0"/>
</linearGradient>
<linearGradient id="paint5_linear_902_163" x1="184.528" y1="499.119" x2="148.688" y2="499.119" gradientUnits="userSpaceOnUse">
<stop stop-color="#231F20"/>
<stop offset="0.08" stop-color="#231F20" stop-opacity="0.69"/>
<stop offset="0.21" stop-color="#231F20" stop-opacity="0.32"/>
<stop offset="1" stop-color="#231F20" stop-opacity="0"/>
</linearGradient>
<linearGradient id="paint6_linear_902_163" x1="265.056" y1="445.36" x2="264.496" y2="634.352" gradientUnits="userSpaceOnUse">
<stop stop-color="#231F20"/>
<stop offset="0.08" stop-color="#231F20" stop-opacity="0.69"/>
<stop offset="0.21" stop-color="#231F20" stop-opacity="0.32"/>
<stop offset="1" stop-color="#231F20" stop-opacity="0"/>
</linearGradient>
<linearGradient id="paint7_linear_902_163" x1="183.136" y1="499.536" x2="329.312" y2="525.696" gradientUnits="userSpaceOnUse">
<stop stop-color="#231F20"/>
<stop offset="0.08" stop-color="#231F20" stop-opacity="0.69"/>
<stop offset="0.21" stop-color="#231F20" stop-opacity="0.32"/>
<stop offset="1" stop-color="#231F20" stop-opacity="0"/>
</linearGradient>
<linearGradient id="paint8_linear_902_163" x1="161.216" y1="486.383" x2="259.344" y2="545.583" gradientUnits="userSpaceOnUse">
<stop stop-color="#231F20"/>
<stop offset="0.08" stop-color="#231F20" stop-opacity="0.69"/>
<stop offset="0.21" stop-color="#231F20" stop-opacity="0.32"/>
<stop offset="1" stop-color="#231F20" stop-opacity="0"/>
</linearGradient>
</defs>
</svg>
