<svg width="800" height="800" viewBox="0 0 800 800" fill="none" xmlns="http://www.w3.org/2000/svg">
<path opacity="0.18" d="M593.152 222.384C570.976 197.168 553.808 167.04 527.312 146.464C485.68 114.064 425.76 110.896 377.088 131.264C328.416 151.616 290.496 192.656 265.488 239.104C252.336 263.552 242.016 290.208 222.752 310.192C206.464 327.072 185.056 337.84 164.768 349.568C132.048 368.416 100.528 391.2 79.3599 422.464C58.1919 453.728 48.72 494.784 62.256 530.016C71.376 553.792 89.7759 572.704 108.608 589.824C130.768 609.952 154.592 628.816 182.096 640.816C216.512 655.744 254.736 658.944 292.192 660.464C358.624 663.152 425.152 661.136 491.296 654.464C545.456 649.008 601.264 639.68 646.592 609.52C710.08 567.28 742.816 489.888 750.176 414C753.168 383.648 752.416 352.112 740.704 323.936C712.688 256.576 637.072 272.336 593.152 222.368V222.384Z" fill="#68E1FD"/>
<path d="M442.448 625.504L406.08 636.272C400.8 637.824 395.248 634.816 393.68 629.536C392.128 624.256 395.136 618.704 400.416 617.136L436.72 606.352C442 604.8 447.536 607.808 449.12 613.088C450.688 618.368 447.696 623.904 442.432 625.504H442.448Z" fill="#68E1FD"/>
<path d="M440.4 665.279C449.652 665.279 457.152 657.779 457.152 648.527C457.152 639.276 449.652 631.775 440.4 631.775C431.148 631.775 423.648 639.276 423.648 648.527C423.648 657.779 431.148 665.279 440.4 665.279Z" fill="#231F20"/>
<path d="M437.376 658.448C442.007 658.448 445.76 654.694 445.76 650.064C445.76 645.433 442.007 641.68 437.376 641.68C432.746 641.68 428.992 645.433 428.992 650.064C428.992 654.694 432.746 658.448 437.376 658.448Z" fill="#231F20"/>
<path d="M373.232 648.72C382.484 648.72 389.984 641.22 389.984 631.968C389.984 622.716 382.484 615.216 373.232 615.216C363.98 615.216 356.48 622.716 356.48 631.968C356.48 641.22 363.98 648.72 373.232 648.72Z" fill="#231F20"/>
<path d="M368.384 671.632C377.636 671.632 385.136 664.132 385.136 654.88C385.136 645.628 377.636 638.128 368.384 638.128C359.132 638.128 351.632 645.628 351.632 654.88C351.632 664.132 359.132 671.632 368.384 671.632Z" fill="#231F20"/>
<path d="M381.616 655.44C381.616 660.064 377.872 663.824 373.232 663.824C368.592 663.824 364.848 660.08 364.848 655.44C364.848 650.8 368.592 647.056 373.232 647.056C377.872 647.056 381.616 650.8 381.616 655.44Z" fill="#231F20"/>
<path d="M443.776 641.936L367.152 626.464C361.76 625.36 358.272 620.112 359.36 614.704C360.464 609.312 365.712 605.824 371.104 606.912L447.728 622.352C453.12 623.456 456.608 628.704 455.52 634.112C454.432 639.52 449.184 643.008 443.776 641.936Z" fill="#68E1FD"/>
<path d="M396.528 521.552H417.456V609.68C417.456 615.456 412.768 620.144 406.992 620.144C401.216 620.144 396.528 615.456 396.528 609.68V521.552Z" fill="#68E1FD"/>
<path d="M404.032 636.144L367.68 646.928C362.4 648.48 356.848 645.472 355.28 640.192C353.728 634.912 356.736 629.36 362.016 627.792L398.368 617.04C403.648 615.488 409.184 618.496 410.768 623.776C412.304 629.056 409.296 634.576 404.032 636.16V636.144Z" fill="#68E1FD"/>
<path d="M410.064 635.088L406.064 636.272C404.864 636.624 403.616 636.752 402.384 636.64L404.048 636.144C405.216 635.808 406.304 635.248 407.264 634.512L410.064 635.072V635.088Z" fill="url(#paint0_linear_904_2)"/>
<path d="M449.552 615.952C449.552 618.256 448.752 620.48 447.296 622.256L415.504 615.824C416.304 614.736 416.88 613.504 417.2 612.192L436.784 606.4C442.096 604.864 447.632 607.936 449.168 613.232C449.424 614.112 449.552 615.04 449.552 615.968V615.952Z" fill="url(#paint1_linear_904_2)"/>
<path d="M396.8 612.064C396.624 611.28 396.528 610.48 396.528 609.68V521.552H403.792V616.528C403.728 616.992 403.744 617.472 403.856 617.92C402.752 617.44 401.568 617.184 400.384 617.152C399.536 617.088 398.688 617.088 397.84 617.152L398.352 617.008C398.672 616.944 397.2 613.856 396.784 612.064H396.8Z" fill="url(#paint2_linear_904_2)"/>
<path d="M324.432 357.088C310.656 354.576 297.616 357.168 292.176 370.64C285.056 388.288 289.056 412.8 290.56 431.216C292.224 451.68 296.848 471.792 302.176 491.584C306.656 508.24 308.096 527.76 324.656 536.896C332.336 541.136 341.088 542.944 349.712 544.496C381.648 550.256 414.896 552.544 446.688 544.64C450.016 543.808 453.44 542.816 455.968 540.496C461.312 535.584 460.48 526.944 458.256 520.032C457.024 516.176 455.44 512.352 452.848 509.232C450.016 505.824 446.112 503.44 442.112 501.52C434.4 497.808 426.08 495.52 418.24 492.096C410.4 488.672 402.8 483.808 398.416 476.448C394.704 470.224 393.664 462.848 392.464 455.712C390.224 442.256 387.232 428.912 383.504 415.792C379.504 401.664 374.336 387.28 364 376.848C356.496 369.28 340 359.92 324.448 357.088H324.432Z" fill="#231F20"/>
<path d="M450.496 640.864C449.04 641.68 447.392 642.096 445.728 642.096C445.056 642.096 444.384 642.032 443.728 641.904L410.016 635.088L407.2 634.528C406.24 635.264 405.152 635.824 403.984 636.16L402.32 636.656L367.68 646.96C362.4 648.512 356.848 645.504 355.28 640.224C358.288 643.008 362.848 643.28 366.144 640.848C370.368 637.92 387.216 633.52 396.752 631.184C401.264 630.112 404.704 626.48 405.552 621.92C405.568 621.648 405.616 621.392 405.664 621.12C407.248 622.832 410.176 624.768 415.456 626.416C428.448 630.416 449.552 633.072 449.552 633.072C449.552 633.072 453.36 636.816 450.496 640.912V640.864Z" fill="url(#paint3_linear_904_2)"/>
<path d="M454.112 637.504C453.456 638.528 452.608 639.44 451.616 640.16C452.288 639.472 453.152 638.544 454.112 637.504Z" fill="url(#paint4_linear_904_2)"/>
<path d="M396.8 612.064C397.216 613.84 398.08 615.472 399.312 616.8C399.008 616.864 398.688 616.944 398.368 617.024L366.848 626.352C361.504 624.992 358.256 619.552 359.616 614.208C360.72 609.856 364.592 606.768 369.088 606.672C369.76 606.672 370.432 606.736 371.088 606.864L396.784 612.048L396.8 612.064Z" fill="url(#paint5_linear_904_2)"/>
<path d="M451.632 640.144C450.368 641.44 449.776 641.92 450.528 640.848C450.912 640.64 451.28 640.4 451.632 640.144Z" fill="url(#paint6_linear_904_2)"/>
<path d="M550.304 491.328C551.2 491.856 552.064 492.448 552.88 493.152C559.616 499.024 565.584 505.92 570.336 513.488C577.088 524.224 581.248 536.752 580.144 549.536C577.248 583.12 572.992 633.008 572.992 633.008C572.992 633.008 559.84 638.544 551.12 633.008C542.4 627.472 537.12 551.68 532.8 544.432C528.336 536.944 521.904 530.272 515.648 524.288C510.928 519.776 505.872 515.568 500.416 511.952C497.584 510.08 495.408 508.592 492.096 507.824C488.128 506.912 484.144 506 480.176 505.072C477.312 504.416 474.416 503.744 471.696 502.608C469.552 501.712 467.552 500.528 465.552 499.36C455.968 493.728 446.384 488.096 437.184 481.856C437.856 481.04 438.88 480.608 439.872 480.224C452.768 475.36 466.992 475.904 480.624 473.76C488.128 472.576 495.52 470.56 503.088 469.808C510.656 469.056 518.624 469.68 525.248 473.44C531.152 476.8 535.44 482.208 540.816 486.256C543.792 488.496 547.248 489.52 550.336 491.328H550.304Z" fill="#231F20"/>
<path d="M386.32 514.144C388.576 516.56 391.056 518.672 393.616 520.352C404.464 527.44 416.912 532.08 429.664 534.224C457.696 538.928 470.768 542.864 479.328 566.96C487.888 591.072 496.112 642.944 498.8 648.736C501.488 654.528 512.928 651.568 512.928 651.568C512.928 651.568 519.392 644.144 519.392 602.896C519.392 545.392 523.392 533.6 508.992 519.152C503.36 513.504 497.024 508.512 490.048 504.656C487.632 503.328 485.152 502.736 482.688 501.664C479.152 500.128 476.448 496.512 473.712 493.856C471.92 492.112 470.112 490.352 467.92 489.152C466.032 488.112 463.92 487.552 461.808 487.088C453.456 485.296 444.848 485.2 436.304 485.104C417.904 484.912 399.52 484.736 381.12 484.544C379.84 484.544 378.464 484.544 377.456 485.344C376.336 486.224 376.032 487.776 375.952 489.2C375.456 498.096 379.984 507.328 386.304 514.128L386.32 514.144Z" fill="#231F20"/>
<path d="M514.4 455.696C517.152 459.872 520.528 464.96 521.168 468.864C521.616 471.616 520.432 474.4 518.88 476.72C512.944 485.584 502.096 489.584 491.84 492.496C457.52 502.224 421.44 505.728 385.888 502.8C384.144 502.656 382.368 502.48 380.8 501.728C377.408 500.08 375.888 496.144 374.736 492.56C369.808 477.248 366.176 461.536 363.888 445.616C363.52 443.104 363.232 440.384 364.448 438.176C365.104 436.992 366.112 436.08 367.12 435.184C370.288 432.336 373.344 429.696 375.888 426.336C377.712 423.904 377.664 422.672 380.848 421.296C385.968 419.088 392.352 419.632 397.792 419.312C419.696 418 441.536 415.904 463.296 413.024C469.232 412.24 475.232 411.392 481.184 411.968C486.608 412.48 492.864 414.336 496.688 418.448C499.776 421.76 499.952 426.208 501.472 430.24C504.368 437.888 507.952 445.28 512.192 452.288C512.816 453.312 513.584 454.48 514.4 455.728V455.696Z" fill="#68E1FD"/>
<path d="M498.816 648.752L501.488 669.792H506.48C506.48 669.792 538.672 671.552 539.68 670.784C540.688 670.016 538.128 654.112 525.936 654.56C513.744 655.008 512.944 651.568 512.944 651.568L498.816 648.736V648.752Z" fill="#231F20"/>
<path d="M555.04 634.736L560.24 655.456L617.04 647.664C617.04 647.664 619.04 634.064 601.04 635.408C596.288 635.76 592.752 639.104 587.04 639.12C581.328 639.152 575.856 636.816 572.976 633.008L555.024 634.736H555.04Z" fill="#231F20"/>
<path d="M242.208 707.44L259.872 708.032V566.96C259.872 566.96 260.768 530.48 295.2 526.816C329.632 523.152 641.888 477.952 641.888 477.952C641.888 477.952 654.272 476.64 661.392 500.384C668.528 524.112 675.456 617.44 675.456 617.44L771.296 630.352C771.296 630.352 773.824 465.488 739.216 456.4C704.608 447.296 251.968 493.664 251.968 493.664C251.968 493.664 218.4 668.768 242.208 707.44Z" fill="#68E1FD"/>
<path d="M242.208 707.44L259.872 708.032V566.96C259.872 566.96 260.768 530.48 295.2 526.816C329.632 523.152 641.888 477.952 641.888 477.952C641.888 477.952 654.272 476.64 661.392 500.384C668.528 524.112 675.456 617.44 675.456 617.44L771.296 630.352C771.296 630.352 773.824 465.488 739.216 456.4C704.608 447.296 251.968 493.664 251.968 493.664C251.968 493.664 218.4 668.768 242.208 707.44Z" fill="url(#paint7_linear_904_2)"/>
<path d="M148.992 510.976C148.992 510.976 157.648 463.072 218.544 450.512L648.4 401.264C648.4 401.264 690.592 399.52 709.904 411.2C729.216 422.88 756.768 432.576 768.064 485.456C779.36 538.336 782.064 628.688 782.064 628.688L771.376 630.352C771.376 630.352 755.776 466.752 739.248 456.4C722.72 446.048 275.904 509.584 275.904 509.584C275.904 509.584 244.912 515.76 242.208 561.68C239.504 607.616 242.208 707.424 242.208 707.424L148.992 669.792V510.976Z" fill="#68E1FD"/>
<path d="M591.232 419.695C568.992 416.799 546.56 414.703 524.144 415.551C507.296 416.207 490.56 418.543 473.856 420.879L326.528 441.487C324.032 441.839 321.184 442.399 319.936 444.607C317.536 448.799 323.168 452.943 327.744 454.543C376.736 471.711 429.072 489.12 479.504 476.864C502.56 471.264 523.968 459.631 547.36 455.599C570.752 451.567 594.752 455.28 618.08 451.472C640.016 447.888 660.896 437.727 683.136 437.631C689.952 437.631 696.976 438.511 703.44 436.351C709.904 434.191 715.632 427.599 713.84 421.007C692.96 420.271 669.536 416.415 649.056 420.607C628.784 424.751 611.552 419.695 591.248 419.695H591.232Z" fill="url(#paint8_linear_904_2)"/>
<path d="M175.824 678.928L165.072 711.568C133.904 722.64 107.392 711.568 107.392 711.568L99.6799 677.344C99.6799 677.344 138.56 690.224 175.808 678.928H175.824Z" fill="#68E1FD"/>
<path d="M175.824 678.928L165.072 711.568C133.904 722.64 107.392 711.568 107.392 711.568L99.6799 677.344C99.6799 677.344 138.56 690.224 175.808 678.928H175.824Z" fill="url(#paint9_linear_904_2)"/>
<path d="M188.016 648.544L184.56 674.336L175.824 678.912C138.608 690.208 99.696 677.328 99.696 677.328L92.992 672.336L89.856 648.544H188.016Z" fill="#68E1FD"/>
<path d="M188.016 648.544L184.56 674.336L175.824 678.912C138.608 690.208 99.696 677.328 99.696 677.328L92.992 672.336L89.856 648.544H188.016Z" fill="url(#paint10_linear_904_2)"/>
<path d="M138.928 657.376C166.03 657.376 188 653.422 188 648.544C188 643.666 166.03 639.712 138.928 639.712C111.826 639.712 89.856 643.666 89.856 648.544C89.856 653.422 111.826 657.376 138.928 657.376Z" fill="#68E1FD"/>
<path d="M138.928 657.376C166.03 657.376 188 653.422 188 648.544C188 643.666 166.03 639.712 138.928 639.712C111.826 639.712 89.856 643.666 89.856 648.544C89.856 653.422 111.826 657.376 138.928 657.376Z" fill="url(#paint11_linear_904_2)"/>
<path d="M115.584 451.567C110.768 449.295 105.584 447.567 101.424 444.239C93.0239 437.471 90.8959 425.807 88.2719 415.359C85.6479 404.895 80.5599 393.407 70.1919 390.399C66.3199 389.295 61.7599 389.727 58.8159 392.495C55.7119 395.407 55.0719 400.191 55.9199 404.399C56.7679 408.607 58.8319 412.399 60.4319 416.399C64.1599 425.695 65.3119 435.823 63.7279 445.695C62.4159 453.807 59.2959 462.015 61.2959 469.967C64.7039 483.455 81.6959 491.359 82.1599 505.263C82.4799 514.639 74.7679 523.311 76.5119 532.543C77.8079 539.375 84.0959 544.703 84.4319 551.631C84.8159 559.503 77.3759 566.159 77.7279 574.031C78.0799 581.903 85.9519 587.151 91.0719 593.343C95.3759 598.543 97.9359 604.959 98.3839 611.695C98.6559 615.887 98.1119 620.239 99.4879 624.223C100.48 627.135 102.48 629.599 104.032 632.223C105.744 635.055 107.024 638.111 109.088 640.735C114.384 647.407 123.216 650.191 131.376 647.727C132.96 637.263 131.568 626.607 132.016 616.031C132.88 595.551 140.64 574.927 135.68 555.039C133.856 547.743 130.368 540.831 129.744 533.359C129.2 526.687 130.976 520.063 132.208 513.471C134.768 499.871 134.72 485.791 133.68 472.047C132.848 461.135 125.168 456.095 115.584 451.567Z" fill="#68E1FD"/>
<path d="M146.224 505.199C146.144 514.319 148.224 523.759 145.312 532.431C143.104 539.007 138.24 544.383 135.728 550.831C129.936 565.743 137.728 582.447 136.144 598.367C135.488 604.927 133.232 611.231 131.808 617.663C130.048 625.807 129.616 634.191 130.528 642.495C130.336 645.615 132.464 648.399 135.52 649.039C140.416 650.911 145.488 652.271 150.672 653.135C148.928 643.487 150.768 633.535 155.856 625.135C163.792 612.143 179.184 603.375 182.064 588.447C184 578.335 179.488 568.079 179.808 557.791C180.032 550.943 182.4 544.335 186.544 538.895C190.272 534.031 195.328 530.271 198.784 525.231C207.12 513.087 204.528 496.848 202.048 482.32C199.568 467.792 198.128 451.071 207.92 440.063C211.024 436.591 215.056 433.967 217.872 430.255C224.128 421.967 222.544 409.199 215.28 401.791C208 394.383 196.288 392.335 186.384 395.599C182.208 396.831 178.528 399.343 175.84 402.767C170.848 409.871 172.848 419.567 174.96 427.999C176.816 435.327 178.304 443.792 175.776 451.168C173.888 456.672 169.104 459.648 165.024 463.472C153.376 474.256 146.592 489.295 146.224 505.167V505.199Z" fill="#68E1FD"/>
<path d="M135.888 586.08C134.464 596 132.416 606 132 615.936V616.928C131.984 617.168 131.92 617.424 131.824 617.648C130.048 625.792 129.616 634.176 130.512 642.464C130.56 643.808 130.912 645.12 131.504 646.32C131.456 646.736 131.392 647.152 131.328 647.568C123.168 650.016 114.336 647.248 109.04 640.576C107.04 637.952 105.696 634.896 103.984 632.064C102.384 629.44 100.432 626.96 99.44 624.064C98.064 620.064 98.6079 615.744 98.3359 611.536C97.8879 604.8 95.3279 598.384 91.0239 593.184C85.8879 587.04 78.0319 581.872 77.6799 573.872C77.3279 565.872 84.752 559.344 84.384 551.472C84.048 544.528 77.7599 539.2 76.4639 532.384C74.7199 523.152 82.4639 514.48 82.1119 505.104C81.6479 491.2 64.6559 483.296 61.2479 469.808C59.2479 461.856 62.3679 453.648 63.6799 445.536C65.2639 435.664 64.1439 425.552 60.4319 416.256C58.8319 412.256 56.7679 408.48 55.9199 404.256C55.0719 400.032 55.6959 395.264 58.8159 392.336C61.8079 389.584 66.3199 389.136 70.1919 390.24C80.5759 393.232 85.6319 404.784 88.2719 415.232C90.9119 425.696 93.0239 437.344 101.424 444.112C105.568 447.456 110.768 449.168 115.584 451.44C125.184 455.984 132.864 461.008 133.68 471.824C134.672 485.584 134.768 499.648 132.208 513.248C130.976 519.84 129.216 526.448 129.744 533.136C130.272 539.824 133.184 546.128 135.088 552.608C135.296 553.344 135.504 554.08 135.68 554.816C138.192 565.104 137.392 575.504 135.872 586.016L135.888 586.08Z" fill="url(#paint12_linear_904_2)"/>
<path d="M131.568 646.352C130.944 645.152 130.592 643.84 130.512 642.496C129.616 634.208 130.064 625.824 131.84 617.68C131.888 617.44 131.952 617.2 132.016 616.96C131.664 626.784 132.8 636.672 131.568 646.352Z" fill="url(#paint13_linear_904_2)"/>
<path d="M217.728 430.224C214.912 433.936 210.88 436.56 207.776 440.032C197.984 451.024 199.424 467.76 201.904 482.288C204.384 496.816 206.976 513.056 198.64 525.2C195.168 530.192 190.128 534 186.4 538.864C182.24 544.304 179.888 550.912 179.664 557.76C179.344 568.048 183.856 578.304 181.92 588.416C179.056 603.344 163.648 612.128 155.712 625.104C150.64 633.504 148.816 643.456 150.576 653.104C145.408 652.256 140.352 650.88 135.472 649.008C134.128 648.608 132.928 647.872 131.952 646.88C131.808 646.72 131.696 646.544 131.584 646.368C130.96 645.184 130.608 643.872 130.528 642.528C129.632 634.24 130.08 625.856 131.856 617.712C131.904 617.472 131.968 617.232 132.032 616.992C133.456 610.8 135.552 604.736 136.192 598.416C136.528 594.32 136.448 590.192 135.952 586.112C137.456 575.616 138.272 565.2 135.728 554.992C135.552 554.256 135.344 553.52 135.136 552.784C135.328 552.144 135.552 551.504 135.792 550.88C138.304 544.416 143.168 539.04 145.376 532.48C148.288 523.808 146.208 514.368 146.288 505.248C146.416 489.488 153.52 474.256 164.944 463.504C169.008 459.68 173.808 456.688 175.696 451.2C178.224 443.808 176.688 435.36 174.88 428.032C172.752 419.6 170.736 409.904 175.76 402.8C178.256 399.28 182.192 396.992 186.304 395.632C196.16 392.368 207.936 394.416 215.2 401.824C222.464 409.232 224 422.048 217.744 430.288L217.728 430.224Z" fill="url(#paint14_linear_904_2)"/>
<path d="M753.12 374.128L538.096 385.648C532.896 385.92 528.464 381.936 528.176 376.736V223.872C528.176 217.696 533.12 212.672 539.28 212.528L753.424 208.112C759.136 208 763.872 212.544 763.984 218.256V362.656C763.984 368.752 759.2 373.792 753.104 374.128H753.12Z" fill="#68E1FD"/>
<path d="M763.04 374.128L548.016 385.648C542.816 385.92 538.384 381.92 538.112 376.72V223.872C538.112 217.696 543.04 212.656 549.216 212.528L763.376 208.112C769.088 208 773.808 212.544 773.92 218.256V362.672C773.92 368.768 769.136 373.808 763.04 374.144V374.128Z" fill="#68E1FD"/>
<path d="M763.04 374.128L548.016 385.648C542.816 385.92 538.384 381.92 538.112 376.72V223.872C538.112 217.696 543.04 212.656 549.216 212.528L763.376 208.112C769.088 208 773.808 212.544 773.92 218.256V362.672C773.92 368.768 769.136 373.808 763.04 374.144V374.128Z" fill="url(#paint15_linear_904_2)"/>
<path d="M700.432 431.696L645.84 437.52C645.84 437.52 629.216 434.16 630.112 431.696C631.008 429.232 648.4 426.864 648.4 426.864V327.728C648.256 327.504 645.968 324.592 639.696 322.736C638.48 322.368 637.248 322.096 636 321.872C634.928 321.712 633.888 321.392 632.896 320.928C629.168 318.992 633.28 315.632 639.072 315.488C639.984 315.456 640.88 315.504 641.776 315.648H683.76C683.76 315.648 699.664 320.128 700.432 342.48C701.2 364.832 700.432 431.696 700.432 431.696Z" fill="#68E1FD"/>
<path d="M656 431.904L645.808 437.52C645.808 437.52 629.184 434.16 630.08 431.696C630.976 429.232 648.4 426.864 648.4 426.864V327.728C648.192 327.504 645.648 324.864 639.696 322.736C637.488 321.952 635.2 321.36 632.896 320.944C629.168 319.008 633.28 315.648 639.072 315.504C644 316.176 653.712 321.568 654.336 324.656C654.96 327.744 656 431.92 656 431.92V431.904Z" fill="#68E1FD"/>
<path d="M656 431.904L645.808 437.52C645.808 437.52 629.184 434.16 630.08 431.696C630.976 429.232 648.4 426.864 648.4 426.864V327.728C648.192 327.504 645.648 324.864 639.696 322.736C637.488 321.952 635.2 321.36 632.896 320.944C629.168 319.008 633.28 315.648 639.072 315.504C644 316.176 653.712 321.568 654.336 324.656C654.96 327.744 656 431.92 656 431.92V431.904Z" fill="url(#paint16_linear_904_2)"/>
<path d="M458 444.799L458.864 448.095C458.864 448.095 484.32 463.919 484.16 464.431C484 464.943 589.744 439.167 589.744 439.167L592.208 431.775L458.016 444.815L458 444.799Z" fill="#68E1FD"/>
<path d="M458 444.799L458.864 448.095C458.864 448.095 484.32 463.919 484.16 464.431C484 464.943 589.744 439.167 589.744 439.167L592.208 431.775L458.016 444.815L458 444.799Z" fill="url(#paint17_linear_904_2)"/>
<path d="M460.368 444.8L553.392 423.84L592.176 431.776L486.496 458.352L460.368 444.8Z" fill="#68E1FD"/>
<path d="M460.368 444.8L553.392 423.84L592.176 431.776L486.496 458.352L460.368 444.8Z" fill="url(#paint18_linear_904_2)"/>
<path d="M431.088 461.392L453.168 462.128C453.168 462.128 458.784 462.464 460.224 458.192C461.664 453.92 451.232 444.944 450.112 444.768C448.992 444.592 419.936 452.32 424.112 460.032L431.088 461.376V461.392Z" fill="#68E1FD"/>
<path d="M431.088 461.392L453.168 462.128C453.168 462.128 458.784 462.464 460.224 458.192C461.664 453.92 451.232 444.944 450.112 444.768C448.992 444.592 419.936 452.32 424.112 460.032L431.088 461.376V461.392Z" fill="url(#paint19_linear_904_2)"/>
<path d="M445.344 187.552C445.344 187.552 444.928 156.48 420.032 159.152C395.136 161.824 397.04 151.536 386.4 152.672C375.76 153.808 363.408 164.304 366.96 177.264C370.512 190.224 357.568 193.136 349.072 202.96C340.576 212.8 351.072 220.848 365.392 230.464C379.712 240.08 364.496 237.6 372.992 252.8C381.472 268 410.208 248.576 410.208 248.576L445.344 187.536V187.552Z" fill="#231F20"/>
<path d="M394.928 273.44C394.928 273.44 352.864 279.872 333.408 325.728C313.952 371.584 324.064 428.4 324.416 433.408C324.768 438.416 384.032 460.096 400.976 460.096C417.92 460.096 421.456 443.312 421.456 443.312L391.52 430.704L482.496 420.32H498.832L489.84 435.312C489.84 435.312 507.6 437.152 519.456 437.568C531.328 437.984 539.376 414.784 540.704 403.248C542.032 391.712 488.288 290.448 480.256 284.448C472.224 278.448 450.448 263.792 394.928 273.456V273.44Z" fill="#68E1FD"/>
<path d="M445.664 187.216C447.072 188.496 448.272 190.032 449.152 191.84C451.104 195.824 451.392 200.384 451.408 204.816C451.44 213.776 450.512 222.736 448.656 231.504C447.072 238.928 443.92 247.216 436.736 249.68C434.08 250.592 431.28 250.512 428.56 249.92C426.272 249.424 424.032 248.496 423.888 251.968C423.728 255.584 426.928 259.472 428.512 262.624C431.008 267.6 433.728 273.648 438.08 277.296C444.096 282.32 432.032 300.848 420.288 294.768C408.544 288.688 394.944 273.424 394.944 273.424C394.944 273.424 404.736 255.04 401.424 245.36C400.368 242.272 399.536 238.928 398.208 235.952C397.216 233.696 395.456 227.984 393.792 226.576C393.344 226.192 392.736 226.112 392.176 225.936C389.232 225.008 387.824 221.68 387.296 218.64C386.816 215.888 387.04 212.464 389.488 211.12C391.28 210.144 393.616 210.784 395.184 212.128C396.752 213.472 397.68 215.36 398.592 217.2C398.032 211.312 398.096 205.216 400.256 199.712C402.416 194.208 407.024 189.392 412.816 188.256C415.376 187.76 418.08 187.984 420.56 187.152C422.24 186.592 423.728 185.584 425.312 184.768C431.792 181.424 440.304 182.336 445.68 187.2L445.664 187.216Z" fill="#FFB4A3"/>
<path opacity="0.25" d="M377.904 339.456L371.312 420.304L391.456 430.688L407.856 427.888L387.408 403.2L377.904 339.456Z" fill="white"/>
<path opacity="0.25" d="M484.144 335.424C484.144 335.424 510.48 398.112 498.816 420.352L489.824 418.624L484.16 335.424H484.144Z" fill="white"/>
<path d="M410.512 440.4C410.512 440.4 400.448 449.392 404.944 456.4C409.44 463.392 414.784 463.2 419.264 460.064C423.744 456.928 432.512 449.504 442.976 452.912C453.44 456.32 455.968 458.496 455.968 458.496C455.968 458.496 461.472 454.88 460.048 451.264C458.624 447.648 447.68 435.92 444.512 434.4C441.344 432.88 428.192 437.552 428.192 437.552C428.192 437.552 418.528 434.816 410.528 440.4H410.512Z" fill="#FFB4A3"/>
<path d="M501.808 423.52C501.808 423.52 492.224 424.624 489.808 430.704C487.392 436.784 486.512 437.52 486.512 437.52C486.512 437.52 491.92 438.512 494.176 435.696C496.432 432.88 498.768 434.064 498.768 434.064L498.096 437.696C498.096 437.696 512.8 439.84 519.424 437.536C526.064 435.232 528.912 432.544 528.912 432.544L531.504 426.4C531.504 426.4 525.232 422.016 520.512 421.328C515.792 420.64 501.792 423.536 501.792 423.536L501.808 423.52Z" fill="#FFB4A3"/>
<defs>
<linearGradient id="paint0_linear_904_2" x1="402.368" y1="635.6" x2="410.064" y2="635.6" gradientUnits="userSpaceOnUse">
<stop stop-color="#231F20" stop-opacity="0"/>
<stop offset="1" stop-color="#231F20"/>
</linearGradient>
<linearGradient id="paint1_linear_904_2" x1="419.52" y1="622.896" x2="465.264" y2="602.464" gradientUnits="userSpaceOnUse">
<stop stop-color="#231F20" stop-opacity="0"/>
<stop offset="1" stop-color="#231F20"/>
</linearGradient>
<linearGradient id="paint2_linear_904_2" x1="418.8" y1="563.504" x2="363.216" y2="582.144" gradientUnits="userSpaceOnUse">
<stop stop-color="#231F20" stop-opacity="0"/>
<stop offset="1" stop-color="#231F20"/>
</linearGradient>
<linearGradient id="paint3_linear_904_2" x1="449.648" y1="623.824" x2="307.152" y2="671.616" gradientUnits="userSpaceOnUse">
<stop stop-color="#231F20" stop-opacity="0"/>
<stop offset="1" stop-color="#231F20"/>
</linearGradient>
<linearGradient id="paint4_linear_904_2" x1="454.464" y1="638.288" x2="449.52" y2="639.952" gradientUnits="userSpaceOnUse">
<stop stop-color="#231F20" stop-opacity="0"/>
<stop offset="1" stop-color="#231F20"/>
</linearGradient>
<linearGradient id="paint5_linear_904_2" x1="399.936" y1="624.128" x2="356.64" y2="612.368" gradientUnits="userSpaceOnUse">
<stop stop-color="#231F20" stop-opacity="0"/>
<stop offset="1" stop-color="#231F20"/>
</linearGradient>
<linearGradient id="paint6_linear_904_2" x1="451.744" y1="640.528" x2="450.064" y2="641.088" gradientUnits="userSpaceOnUse">
<stop stop-color="#231F20" stop-opacity="0"/>
<stop offset="1" stop-color="#231F20"/>
</linearGradient>
<linearGradient id="paint7_linear_904_2" x1="327.536" y1="106" x2="709.104" y2="1191.28" gradientUnits="userSpaceOnUse">
<stop stop-color="#231F20" stop-opacity="0"/>
<stop offset="1" stop-color="#231F20"/>
</linearGradient>
<linearGradient id="paint8_linear_904_2" x1="509.568" y1="364.335" x2="542.928" y2="691.696" gradientUnits="userSpaceOnUse">
<stop stop-color="#231F20" stop-opacity="0"/>
<stop offset="1" stop-color="#231F20"/>
</linearGradient>
<linearGradient id="paint9_linear_904_2" x1="189.104" y1="694.224" x2="121.52" y2="696.816" gradientUnits="userSpaceOnUse">
<stop stop-color="#231F20" stop-opacity="0"/>
<stop offset="1" stop-color="#231F20"/>
</linearGradient>
<linearGradient id="paint10_linear_904_2" x1="199.392" y1="663.232" x2="143.392" y2="665.152" gradientUnits="userSpaceOnUse">
<stop stop-color="#231F20" stop-opacity="0"/>
<stop offset="1" stop-color="#231F20"/>
</linearGradient>
<linearGradient id="paint11_linear_904_2" x1="145.792" y1="615.488" x2="117.456" y2="751.936" gradientUnits="userSpaceOnUse">
<stop stop-color="#231F20" stop-opacity="0"/>
<stop offset="1" stop-color="#231F20"/>
</linearGradient>
<linearGradient id="paint12_linear_904_2" x1="132.992" y1="647.296" x2="75.9839" y2="387.28" gradientUnits="userSpaceOnUse">
<stop stop-color="#231F20" stop-opacity="0"/>
<stop offset="1" stop-color="#231F20"/>
</linearGradient>
<linearGradient id="paint13_linear_904_2" x1="136.224" y1="652.56" x2="129.552" y2="622.176" gradientUnits="userSpaceOnUse">
<stop stop-color="#231F20" stop-opacity="0"/>
<stop offset="1" stop-color="#231F20"/>
</linearGradient>
<linearGradient id="paint14_linear_904_2" x1="128.208" y1="666.16" x2="192.176" y2="447.184" gradientUnits="userSpaceOnUse">
<stop stop-color="#231F20" stop-opacity="0"/>
<stop offset="1" stop-color="#231F20"/>
</linearGradient>
<linearGradient id="paint15_linear_904_2" x1="786.112" y1="383.232" x2="536.416" y2="217.936" gradientUnits="userSpaceOnUse">
<stop stop-color="#231F20" stop-opacity="0"/>
<stop offset="1" stop-color="#231F20"/>
</linearGradient>
<linearGradient id="paint16_linear_904_2" x1="743.328" y1="472.32" x2="569.76" y2="310.48" gradientUnits="userSpaceOnUse">
<stop stop-color="#231F20" stop-opacity="0"/>
<stop offset="1" stop-color="#231F20"/>
</linearGradient>
<linearGradient id="paint17_linear_904_2" x1="512.192" y1="386.591" x2="553.856" y2="553.599" gradientUnits="userSpaceOnUse">
<stop stop-color="#231F20" stop-opacity="0"/>
<stop offset="1" stop-color="#231F20"/>
</linearGradient>
<linearGradient id="paint18_linear_904_2" x1="443.856" y1="413.072" x2="583.856" y2="459.984" gradientUnits="userSpaceOnUse">
<stop stop-color="#231F20" stop-opacity="0"/>
<stop offset="1" stop-color="#231F20"/>
</linearGradient>
<linearGradient id="paint19_linear_904_2" x1="443.392" y1="448.096" x2="439.728" y2="474.704" gradientUnits="userSpaceOnUse">
<stop stop-color="#231F20" stop-opacity="0"/>
<stop offset="1" stop-color="#231F20"/>
</linearGradient>
</defs>
</svg>
